<svg xmlns="http://www.w3.org/2000/svg" xmlnsXlink="http://www.w3.org/1999/xlink" width="1920" height="1080" viewBox="0 0 1920 1080">
  <defs>
    <clipPath id="clip-path">
      <path id="path829" d="M0-816H1920V264H0Z" transform="translate(0 815.998)"/>
    </clipPath>
  </defs>
  <g id="g823" transform="translate(0 815.998)">
    <g id="g825" transform="translate(0 -815.998)">
      <g id="g827" clip-path="url(#clip-path)">
        <path id="path833" d="M710.571-212.371c-3.536-7.71-9.951-2.352,0,0M298.624-382.154c-3.018-.6-5.123-1.692-8.144-2.291-1.509,2.543,7.507,4.726,8.144,2.291m6.14-21.792c-8.988,1.507-12.8-6.469-16.329-1.145,3.256.937,12.455,4.347,16.329,1.145m915.639,58.5c.574-2.34,5.525-2.246,6.121-4.592-4.182-.3-9.456,4.459-6.121,4.592m-838.152,58.5c-4.709.358-2.287-3.3-6.118-3.441-.976,2.246,5.481,5.878,6.118,3.441m862.638-79.138c-1.007.034-7.611.307-6.13,1.145,2.472,1.391,13.387-1.731,6.13-2.291.006,0-.031,1.145,0,1.145M341.46-288.091a14.31,14.31,0,0,1,1.9,1.982c-.1.039-.22.067-.32.111a5.346,5.346,0,0,0,.637.265c1.647,1.971,3.335,3.844,5.939,2.232-.784-.473-1.647-1.144-2.522-1.8,3.586-.581,6.654-3.663,2.7-5.089.624,2.321-2.127,2.889-4.6,3.609-3.326-2.748-6.883-6.078-9.86-8.19-1.073-.764-1.779-6.194-6.108-2.294,4.408,3.088,9.026,6.619,12.235,9.173m895.253-86.035c5.641,1.519,6.993-4.525,4.082-1.144-.386-.012-.825-.012-1.261-.005,3.445-.494,2.682-4.671-2.434-3.365v3.208a6.682,6.682,0,0,0,1.44.178c-2.463.1-4.668.452-1.826,1.128M333.3-300.707a9.746,9.746,0,0,0-4.072-3.436c-.32,1.53,3.206,6.319,4.072,3.436m730.067-230.569c-.389-3.078,6.933-5.077,0-8.028.022,2.051-5.481,6.665,0,8.028m20.389,9.173a4.577,4.577,0,0,1-2.046,4.6c7.42-.049,6.566-4.726,12.248-5.732-5.763-.962-5.286,1.609-10.2,1.133M728.924-184.845c-2.9-.275-3.445-1.89-6.118-2.3-1.785,2.363,5.286,5.162,6.118,2.3M653.473-516.367c-6.88-3.483-6.187,4.242,0,0M316.98-450.974c-6.19.7-17.572-1.475-20.392,1.145,6.209-.722,17.569,1.47,20.392-1.145m407.871,238.6c.11,2.134-1.569,2.418-4.091,1.14-2.046,3.459,4.549,2.033,8.163,2.289.11-1.971-1.569-2.933-4.072-3.429m362.983-317.753c5.374.351,5.264-2.391,6.121-4.586-6.576-1.039-2.861,3.736-6.121,4.586M274.172-446.387c-3.871.261-4.508-1.3-8.173-1.147-3.269,3.2,8.809,3.168,8.173,1.147m825.9-78.005c.3-1.359,3.636-2.6,0-3.443-.295,1.359-3.614,2.6,0,3.443m-758.62,222.54c.684,2.672,2.105,4.939,6.127,5.732-.684-2.675-2.1-4.938-6.127-5.732m63.225,17.2c-8.245-4.027-4.828,3.7,0,0m10.2,36.716a31.622,31.622,0,0,1,4.16,2.915c.091,1.161,1.092,1.849,3.081,2.029a8.282,8.282,0,0,0,5,.8,7.43,7.43,0,0,1-3.693-.754c.216-.007.376.028.605.016v-2.636h-2.086c-.129-1.315.009-2.693-.963-3.515-.427-.369-3.495.325-4.072,0-.687-.39.675-1.9,0-2.294-4.022-2.4-9.465-4.256-14.271-6.879-4.32-2.351-7.667-6.844-14.275-6.875.2,2.58,5.443,3.877,8.147,5.727,1.955,1.329,2.2,3.272,4.069,4.585,3.915,2.732,10.259,4.694,14.293,6.884m6.118-29.822c.417.794-4.48-3.609-6.127-1.151,3.178,1.329-1.054,1.62,2.055,3.447,4.489,2.636,14.588,12.648,18.343,10.331-5.591-3.7-11.548-7.447-16.307-11.476.5.431,2.4-.457,2.036-1.151M702.408-176.818c-8.113-4.5-19.238-9.715-26.51-13.772-3.464-1.922-5.133-4.454-8.141-5.732-2.215-.944-5.722-.415-8.176-1.156-1.487-.438-.336-3.7-4.072-1.135q.565-3.764-6.118-3.446c2.206,2.4,3.8,4.512,6.118,5.737,3.438,1.816,8.483,2.665,12.248,4.586,5.917,3.056,8.26,5.363,14.271,6.889,6.463,1.647,12.951,11.513,20.38,8.028M402.64-244.506c10.2.035,12.533,10.5,22.435,6.888-4.169.208-8.314-2.9-12.235-4.579-3.5-1.5-9.722-6.609-10.2-2.308m89.732,3.454c7.956,5.464,5.481-2.9,0,0M618.8-198.612c-2.595,4.519,5.581,2.982,8.144,4.586-.875-2.569-3.586-4.084-8.144-4.586M412.839-283.5c-2.4.18-5.8-.189-6.118,1.147,2.921.274,3.435,1.888,6.118,2.291Zm205.2-332.07c-2.651,1.308-1.876,3.934,3.376,3.519.467-2-.4-3.3-3.376-3.519m11.809,82.615c5.164.859,8.3-6.469,1.688-6.152-2.325,1.133-1.669,3.822-1.688,6.152m-16.872-.884c7.994,1.481,9.3-5.049,1.688-4.391a3.76,3.76,0,0,0-1.688,4.391M602.633-694.7c1.271-.709.546-1.8,1.688-2.637.546-.413,2.742-.446,3.357-.882,1.073-.731.806-1.976,1.678-2.631,3.31-2.419,6.993-4.62,10.14-7.032,1.591-1.219,3.178-2.169,5.067-3.515,3.765-2.7,5.7-5.5,8.442-7.915.577-.51,2.679-1.191,3.357-1.756.853-.725.615-1.922,1.688-2.636,5.086-3.379,14.24-4.826,16.885-8.794,1.468-2.218.784-5.239,0-7.911-2.165-.044-2.344-1.115-5.067-.877-4.568,2.442-6.871,3.079-10.13,6.152-4.091,3.882-9.076,9.441-11.8,12.312-1.211,1.251-.505,2.3-1.688,3.51-3,3.078-8.48,5.82-11.818,8.792-.976.877-.863,1.911-1.691,2.638a104.4,104.4,0,0,1-8.42,7.032c-1.926,1.408-4.838,2.1-6.751,3.514-1.929,1.414-3.04,3.716-5.067,5.268-.844.649-2.435.923-3.376,1.761-2.127,1.915-3.2,3.2-5.057,4.4-5.87,3.743-10.478,7.7-15.184,11.419-3.467,2.742-10.8,5.815-8.424,9.671,12.555-8.832,27.294-21.552,42.171-29.878m44.088-24.57c-.251,1.034-3.009,1.991,0,2.633.239-1.039,3-1.989,0-2.633M381.852-297.421c-2.4-.212-2.839-1.449-5.064-1.759-1.471,1.8,4.38,3.942,5.064,1.759m36.888-297.1c.515-2.028-4.869-.976-5.067-2.626,5.374-.731,2.362-5.815,10.13-5.284,5.3-.425,4.449,3.034,8.442.877a3.4,3.4,0,0,1,1.688-3.508C414.417-607.1,404.089-597.711,412-591c4.292-.113,6.535-1.279,6.736-3.521m-5.067-15.821c-1.211-2.381,7.975.632,6.755-1.754-4.173,1.14-6.993-2.582-8.424,0,3.159.206-.963,1.447,1.669,1.754m241.468-68.508c11.432.127,9.493-9.99,5.067-13.186-1.371,5.024-7.639,8.566-5.067,13.186m-290.155,7.027v23.732c.091.923,2.168.687,1.691-.877v-14.061c.863-5.134-1.183-9.447,0-14.061.6-2.379,3.187-4.7,3.376-7.029.577-7.016-3.824-14.178-1.688-22.853.06-.934-.794-2.231-1.688-.884,1.647,13.586-7.034,22.1-1.691,36.034m50.375,63.24c2.265-.129,5.1,3.575,6.755.879-1.054-.487-5.086-3.565-6.755-.879M402.1-271.942c-6.984-2.358-16.041-2.6-21.939-5.273.138.067,2.193-.346,0-.877.634.157-3.457,1.677-3.376,0,.951.007,1.923-.708,0-.877-.022,1.452-4.681.492-5.067,1.754,4.678-.145,5.8,1.354,3.376,2.644,10.767-2.922,19.407,4.267,27.005,2.629m33.518-336.635c-.693-2.118,3.078-1.911,1.691-4.391-6.538-.967-6.02,3.111-10.133.877.307,2.469,2.943,3.743,8.442,3.513M540.2-648.119c-6.911-2.033-12.932,2.922-11.809,7.911,10.359.7,11.332-3.48,11.809-7.911m-20.229,12.3c-4.452-.268-5.534,1.212-5.076,3.515,4.449.261,5.544-1.219,5.076-3.515M344.726-282.483c.518,3.593-2.322-.145-6.733.882-1.054,5.626-2.968.934-3.376.877.119.016-.229,1.1-1.688.877-.885-.132-4.74-2.8-5.067-.877,4.449,1.542-2.246,3.671-3.357.877a2.861,2.861,0,0,0,0,5.268c7.41.392,7.369-1.724,8.424-2.636,3.573,1.816,11.677-1.475,18.551-.877-.477-2.381-6.177-2.049-6.754-4.391M732.757-555.811c4.847-5.091-4.169-2.308,0,0m3.379-43.939c3.922.789.963-5.982,0-2.631-.536,10.264-16.587,12.452-13.509,24.6,18.058-1.565,9.653-15.312,13.509-21.972m0-75.575c1.17-.653,4.188-4.308-1.691-3.519.279,1.318-.6,3.24,1.691,3.519m0,107.218c1.431,3.155-4.787,6.8-1.691,7.906,1.095-1.823,6.3-6.012,1.691-7.906m-13.509,7.029c-.574-1.655,3.9-6.4,0-4.392,1.013,1.564-4.944,3.649,0,4.392m-26.993-12.3c1.908-3,9.773-6.24,3.376-9.671.477,8.169-13.826,13.3-6.751,21.974,1.587-4.085,1.1-8.739,3.376-12.3m1.688-17.58c-.5.542-4.191,3.38,0,3.519-1.609-1.631,5.054-2.938,0-3.519m21.929-52.731c-3.416,1.318-1.986,2.8-3.376,4.4-.279.33-3.062.441-3.379.872-1.826,2.608-.537,5.643-1.666,8.794-1.431,3.877-6.984,7.715-3.379,10.548,1.826-8.727,16.229-15.56,11.8-24.614M690.58-659.511c.445-1.2-1.045-3.429-1.691-1.752-.455,1.195,1.045,3.423,1.691,1.752m1.679,63.281c-2.228,9.379-14.086,13.754-13.49,24.607,15.514-1.009,12.248-11.659,13.49-20.216.326-2.213,4.605-3.012,0-4.391m21.926,51.847c.477-2.015,5.9-9.117,1.691-7.909.555,2.552-5.92,9.106-1.691,7.909m-21.926-95.792c-.656.888,1.666,1.535,1.688,1.754.891,6.57,4.27,10.375,5.063,14.943.358,2.056-1.707,4.173-1.688,6.152.041,5.373,4.787,10.481,3.379,15.815.533,1.414,2.4-.062,1.688-1.754.138-1.893-.188-3.6,0-5.275.307-2.938,3.307-6.2,3.376-8.786a27.577,27.577,0,0,1-3.376-.877c-.458-.821,1.725-1.1,1.688-1.754-.27-3.446-1.38-3.912-3.376-6.157-3.655-4.107-5.613-7.811-5.067-12.307.336-2.871,6.334-6.2,6.754-9.665.408-3.413.872-7.094-6.754-9.671-1.747,2.739-4.549,5.269-5.054,7.911-1.026,5.269,3.147,7.682,1.679,9.671m-16.866-29c.377.676.041,1.726,1.688,1.754-.009.491,1.362,1,1.688,0-3.395-2.576-1.518-2.486-5.064-4.4,1.747.951-6.438.157-3.379-1.759-5.55.039-6.453,2.508-6.742,5.28,3.614,1.894,9.415.452,11.809-.877M726.006-572.5c-1.333.605-3.755,4.894,0,5.269-1.838-2.252,5.123-4.189,0-5.269M236.764-267.545c-3.084,2.084-4.4,5.084-1.688,7.911,14.748,2.6,16.144-9.7,1.688-7.911m-15.184-29c-.511,1.189-2.4,1.675-1.688,3.514,7.846,1.068,8.11-3.491,1.688-3.514m-11.8,5.273c-.389.544,2.551,1.885,3.385,1.759,4.43-.708-1.1-4.945-3.385-1.759M206.4-261.393c.26,1.039-.289,2.5,1.688,2.642,1.029-.828,3.928-3.245-1.688-2.642M742.869-612.935c.973-.531,3.953-4.168,0-4.391,1.013,1.563-4.947,3.653,0,4.391M381.852-144.5c7.338-7.726-16.467-1.519,0,0M257.021-227.114c1.688,0,2,.709,3.366.877-.009-.877,1.371-1.045,1.678-1.754-1.688,0-2-.716-3.366-.879.009.879-1.368,1.045-1.678,1.756M297.51-339.606c-1.418,1.382-7.3,4.9-3.376,6.152-1.17-2.928,3.476-1.419,5.067-.882-.665-2.677,4.43-4.475-1.691-5.269m5.057,56.246c.505-2.319-3.526-2.269-6.745-2.638-1.528,2.839,5.5,1.237,6.745,2.638m-5.057,10.548c-1.349,3.039,1.87,3.7,3.369,5.268,7.834-.6,12.3-2.949,13.5-7.027-8.066-1-9.327.754-16.866,1.759m-3.376-22.849c-4.944.849-3.793-.776-6.755-1.759-1.33-.441-2.362-.487-3.376-.877-1.39-.549-.6-.877-3.366-.882,1.641.005-8.314,1.714-8.442,1.759-2.591.877-13.509,8.917-13.5,8.786-.417,5.259,7.925,7.3,21.939,7.911,6.447-1.324,6.526-5.977,13.5-7.029,1.769-3.676-3.564-5.961,0-7.909m109.647,27.24c7.269-2.531,14.62,4.581,20.251,2.638-4.6-1-17.669-7.415-20.251-2.638m-153.525,0c3.009.776,4.3,2.453,10.13,1.759,8.2-6.385-11.818-10.207-10.13-1.759M299.2-293.031c-.16,1.391-4.311.688-3.379,2.642,2.526-.15,6.218.309,6.745-.882-1.321-.194-3.329-.023-3.366-.877.932,0,1.9-.709,0-.882M273.884-703.453c3.269-2.631,6.8-11.229-1.688-12.307-1.907,3.005-3.9,10.613,1.688,12.307M447.641-105.841c.038,4.1,8.4,4.1,8.439,0a11.029,11.029,0,0,0-8.439,0M66.383-354.543c2.249,1.138,6.271,1.156,6.751-.884-2.237-1.145-6.281-1.158-6.751.884M88.321-387.07c-.1.538-.27,1.046-1.688.877-.518,2.321,2.334,2.889,6.742,2.644.477-2.3-.615-3.782-5.054-3.521M479.7-176.144c.235.319-1.848-.965-1.688-.877-1.214-.665-.527-.926-1.691-1.754-5.123-3.725-19.366-.379-21.929,3.508-.734,1.112.935,4.175,1.688,7.034,1.751,6.6,5.873,11.146,13.5,11.419,4.063.15,7.1-1.486,13.5-3.508,2.165-3.134-2.673-5.884-3.376-8.788-.678-2.838,1.675-4.726,0-7.034m-3.379-5.273c14.66-9.1-20.8-18.508-15.184-2.636,4.1,1.385,7.222,3.279,15.184,2.636M353.168-278.092c6.456,1.682,6.149,1.078,11.818,0,3.636-.681,7.172.256,6.736-1.754-6.177-1.53-12.216.861-18.554,1.754M486.452-240.3c.329.139-2.861-1.9-1.688-1.752-10.089-1.241-13.06,3.042-13.5,11.423,2.165,2.386,8.173,2.765,10.121,5.275-5.007,2.367-14,2.663-16.875,6.145.794,4,7.5,4.888,16.875,4.4-2.623-4.1-1.807-5.866,0-7.915,3.357-3.789,11.062-5.52,11.809-8.783.9-4.039-3.8-7.576-6.745-8.788M209.777-431.89c-3.975-.743,4.646-2.156,1.7-5.275-3.354-.011-2.149-2.389-6.755-1.754-.358.985-1.876,1.369-3.366,1.754-.706,2.118,3.075,1.911,1.678,4.4-.944,0-1.917.711,0,.879.536-2.912,5.22,3.436,6.745,0m-26.99,0c-2.162-.041-2.331-1.122-5.067-.879-2.623,2.163,5.744,2.587,5.067.879M422.345-242.052c-1.38,3.138,3.586,4.361,6.751,2.629.505-2.314-2.343-2.882-6.751-2.629m-62.422-40.431c-6.356,1-7.677-.844-10.13,1.759,3.018-.531,7.012,2.576,8.442,0-1.035-.051-2-.134-1.691-.877,1.311-.206,3.338-.028,3.379-.882M127.113-416.069c-2.325,1.128-2.93,5.257,1.685,5.275,1.785-2.917,5-3.812-1.685-5.275m305.34,272.446c5.3.4,7.548-.761,6.755-3.519-4.646-2.732-11.988,1.094-6.755,3.519m5.067,13.186v-3.521a16.591,16.591,0,0,0-6.745.877c-.518,2.317,2.347,2.883,6.745,2.644M105.19-392.343c-2.165,1.161-2.165,3.247,0,4.391,7.576.453,5.547-4.594,0-4.391M511.757-226.236c1.333-3.034-1.578-3.861-5.064-4.392.377,1.661-1.907,1.939-1.688,3.515,2.284.274,3.228,1.251,6.751.877M926.762-580.409c-2.56,1.235-5.33,4.267-1.685,6.15,6.98.828,10.337-6.524,1.685-6.15m-26.99,54.48c-.082-1.207.794-1.922,1.685-2.631h-3.385c-1.879,1.262-1.817,2.139,1.7,2.631M840.717-522.4a3.778,3.778,0,0,0-1.691,4.385c5.346,1.3,8.116-5.051,1.691-4.385m141.7-118.648c-.358-.688-1.412-1.027-3.375-.882-4.348,1.922-8.7,5.2-5.045,8.794,8.781.462,8.571-3.738,8.42-7.911M852.525-596.23c4.687-4.2-5.534-2.135,0,0m3.376-74.7c1.123-1.756,5.832-3.755,0-4.392,1.013,1.56-4.944,3.642,0,4.392m5.076,80.854c3.416-2.352,1.578-3.341,3.366-5.273-5.609-.353-9.424,4.736-3.366,5.273M887.951-547.9c-4.439-.261-5.522,1.225-5.067,3.519,4.452.27,5.544-1.216,5.067-3.519m99.536-65.91c-17.233-.593-23.856,12.743-13.487,18.459,11.984-1.945,17.776-10.855,13.487-18.459M1159.562-496.93c-.537,1.2-2.4,1.687-1.688,3.526,4.709,1.408,4.668-3.8,1.688-3.526m-838.431,66.8v2.636h3.376c-.019-.882,1.362-1.045,1.669-1.759-2.155-.051-2.325-1.122-5.045-.877m828.3-77.336c-6.1,4.147,9.889,1.165,0,0m-155.2-116.887c.857-.268,6.042-.464,6.745-.877,1.4-.831-.775-3.273,1.688-3.519-6.786.867-13.763,1.615-13.493,6.15,3.454.531,3.592-1.3,5.06-1.754m124.844,138.861c4.408.245,7.25-.33,6.729-2.644-4.4-.245-7.234.325-6.729,2.644M984.111-619.079c2.9-1.424,4.188-3.676,3.376-7.034-7.558.09-7.715,5.156-3.376,7.034M746.244-582.169c-.267-1.622,3.984-7.2,0-5.275,1.829,2.247-5.133,4.191,0,5.275m266.547-64.158c-2.66,2.128-6.275,3.755-5.064,7.906,9.713.722,9.8-5.827,5.064-7.906M903.148-564.594c2.729-1.212,8.339-.854,6.733-3.514-9.474,1.2-17.816,3.016-20.242,7.906,5.057,1.876,9.274-2.52,13.509-4.392m-145.1-79.977c.38-1.934,4.132-6.549,1.688-7.034-.743,1.731-6.256,5.435-1.688,7.034m6.755,22.855c-.963-2.352,5-5.5,0-7.034,1.958,2.855-5.155,5.4,0,7.034M810.345-531.2c.1-1.514-1.289-2.252-3.366-2.643-2.413,1.292-2.475,3.409,3.366,2.643M753-633.146c-.913-2.594,4.787-6.2,1.669-7.029-.734,1.726-6.237,5.435-1.669,7.029M771.553-651.6c1.43,6.039-6.249,11.961-1.691,16.7,1.035-9.72,11.156-19.375,6.755-29-1.111,2.351-.715,5.492-3.376,7.034-1.352-4.509,3.555-5.765,3.376-9.671-7.012.542-3.683,4.643-5.063,7.9-1.393,3.312-8.671,7.4-3.379,9.683a7.934,7.934,0,0,1,3.379-2.649m-27,46.581c1.65-1.5,6.177-5.4,1.688-6.152.458,3.162-3.115,4.235-3.376,7.034,1.371,1.3.508.2,1.688-.882m6.755,53.608c-.1.542-.26,1.039-1.688.882v1.754c4.151,1.369,4.954-2.982,1.688-2.636m-1.688-159.949c-1.311,1.955-3.555,3.43-3.379,6.157,5.227.6,7.021-5.033,3.379-6.157m-1.688,179.283v2.644c4.916,1.285,4.916-3.927,0-2.644m18.551-98.428c3.137-.134,1.032-2.972,3.375-3.513-5.142-1.2-4.747,6.808-3.375,3.513m3.375-41.308c.618-1.514,5.1-5.43,1.691-6.145-1.848.877-6.318,4.788-1.691,6.145M783.349-568.99c12.5.06,14.146-5.52,16.885-10.542-7.269-1.955,1.679-7.174-6.751-8.788-6.892,4.274-17.678,13.029-10.133,19.331M803.6-724.549c.229-1.285,1.321-3.9-1.688-4.391-2.074,3.318-5.65,5.843-5.054,10.546,3.577.124,6.375-4.038,6.742-6.155M786.728-539.99c.267,1.039-.279,2.5,1.688,2.643,1.032-.822,3.931-3.242-1.688-2.643m1.688-154.677c-5.443-.787-2.375,2.866-5.067,3.521,4.452.263,4.351-1.839,5.067-3.521m5.067-33.4c.5-.536,4.2-3.381,0-3.521-.5.547-4.191,3.386,0,3.521M779.992-672.7c-1.945,1.045-1.9,3.118-1.688,5.28.935,2.379,4.609-5.643,1.688-5.28m42.441,469c-.132.653-.32,1.269-2.1,1.068v2.135c5.145,1.657,6.146-3.616,2.1-3.2M1697.84-322.1c5.474.3,9.01-.39,8.373-3.2-5.474-.3-9,.392-8.373,3.2M839.186-194.092c-2.532-.1-1.3,1.558,0,0m-29.327,25.6c.336,1.258-.358,3.028,2.1,3.2,1.28-1,4.866-3.941-2.1-3.2m301.584,94.945c.32,1.246-.358,3.028,2.083,3.2,1.3-.99,4.878-3.934-2.083-3.2M832.9-201.562c4.86.934,4.806-5.423,2.1-2.134-1.17.949-6.306,4.671-2.1,2.134m852.361-97.066c7.805,2.642,20.995.459,18.858-5.329-11.034-.653-15.859,1.876-18.858,5.329m-37.682,44.8c-1.691,6.464,9.594.709,0,0m-121.478-44.8c-.119.648-.295,1.262-2.1,1.068v2.134c5.167,1.659,6.168-3.626,2.1-3.2M1459.095-437.3c-3.181,1.5-6.616,5.179-2.1,7.47,8.672,1.006,12.841-7.924,2.1-7.47m20.944,37.334c-4.4,4.219-13.249,6.722-8.392,12.8-3.366,2.587-12.038,8.028-8.361,10.664,5.042-1.121,4.169-4.994,6.274-6.4,5.026-3.335,14.94-4.586,18.852-8.538-.536-4-3.288-6.858-8.373-8.531m92.138-80.008c-6.8,9.076-5.493,19.618-8.373,29.869a230.28,230.28,0,0,1-12.565,33.069c-3.071,6.563-5.462,13.234-8.383,20.273-1.8,4.352-4.26,8.4-6.287,12.8-3.216,7.032-4.784,14.993-8.373,19.195-4.21,4.943-10.237,9.051-12.552,13.871-3.583,1.984-9.566,2.006-12.574,3.2-5.917,2.345-13.716,9.529-14.657,12.8-2.3,7.943,2.861,18.323,14.657,19.205,15.279,1.129,35.677-16.1,35.6-22.406-.041-3.7-7.934-7.631-8.373-11.725-.1-.923,1.4-3.905,2.1-5.336,2.861-5.928,2.017-12.593,4.182-18.134.518-1.285,3.247-2.961,4.192-4.274,1.261-1.726,1.271-3.487,2.1-5.329,3.357-7.535,4.828-14.771,8.383-21.341,1.816-3.341,5.233-6.4,6.278-9.6,1.073-3.245-.549-6.307,0-9.6,1.449-8.5,9.048-18.694,10.479-26.672.665-3.72-1.032-7.246,0-10.671,2.024-6.63,9.732-11.988,8.373-18.132-.471-.822-1.75-1.235-4.191-1.066m-18.852,102.406c11.95-1.391,18.2-5.67,18.852-12.8H1565.9c-2.566,5.095-14.212,5.569-12.574,12.8M805.677-141.818c2.416,3.468-6.406,6.558,0,8.531.844-1.793,6.952-9.554,0-8.531m228.27,84.268c-.11,1.368-2.679,1.479-2.1,3.2h4.182c2.372-1.532,2.265-2.6-2.086-3.2M912.481-24.478c.408.171-3.555-2.314-2.1-2.128-12.524-1.509-16.21,3.692-16.753,13.865,2.689,2.9,10.149,3.356,12.565,6.4-6.209,2.878-17.38,3.242-20.948,7.465.982,4.844,9.308,5.933,20.948,5.335-3.25-4.977-2.246-7.117,0-9.6,4.16-4.6,13.744-6.7,14.657-10.659,1.133-4.913-4.728-9.2-8.373-10.671m-43.987-84.268c-4.656,1.632-7.068,7.514,4.191,6.4-.028-2.834,1.161-6.281-4.191-6.4M899.91,46.991C918.1,35.941,874.1,24.526,881.059,43.8c5.085,1.675,8.957,3.972,18.852,3.2m4.191,6.4c.295.385-2.3-1.179-2.1-1.068-1.512-.8-.656-1.128-2.1-2.128-6.369-4.519-24.047-.459-27.225,4.262-.9,1.346,1.161,5.061,2.1,8.531,2.162,8.017,7.288,13.532,16.753,13.867,5.035.184,8.81-1.805,16.756-4.262,2.679-3.8-3.319-7.14-4.191-10.666-.844-3.448,2.086-5.737,0-8.536m-71.2-80c-1.707,3.81,4.452,5.3,8.383,3.194.627-2.815-2.908-3.5-8.383-3.194m31.407,165.334c.038,4.976,10.425,4.976,10.478,0a13.943,13.943,0,0,0-10.478,0M845.454,92.863q9.845.736,8.383-4.269c-5.772-3.319-14.889,1.324-8.383,4.269M1748.1-335.975c-.665,1.447-2.977,2.044-2.1,4.279,5.838,1.71,5.791-4.608,2.1-4.279M1075.838-61.819h4.191c.11-1.364,2.67-1.474,2.1-3.2h-6.287Zm-16.753,3.2c-.618,2.794.766,4.6,6.275,4.269.656-1.442,2.98-2.033,2.1-4.269Zm676.446-290.144c-7.577,5.028,12.266,1.414,0,0M1092.594-73.545h4.191c.11-1.362,2.67-1.481,2.1-3.2h-6.287Zm-37.7-26.67c.85,2.569-3.824,2.317-2.108,5.335,7.708,1.027,8.345-5.245,2.108-5.335M1444.434-350.9c-3.2,2.794-11.661,4.666-14.661,7.459-3.545,3.3-2.152,6.9-4.191,10.675-.326.593-3.557,2.241-4.2,3.2a44.432,44.432,0,0,0-2.1,4.269c-4.339,8.01-7.053,18.191-10.46,24.535-5.509,10.241-6.6,26.494-14.657,34.129-1.569,3.3,7.219,1.3,4.182,5.34-4.907,7.939-29.813,13.989-12.574,23.464,37.3-.334,11.053-24.439,27.241-33.072,1.1-3.888-9.2-4.782-4.191-7.456.527-21.577,25.525-34.286,33.512-51.208,1.361-2.894,3.624-7.011,4.191-9.6.882-4.083-1.431-8.575,0-12.8.367-1.1,3.078-2.7,4.182-4.262,4.32-6.131,7.159-11.7,6.287-16.008-1.829,3.046-4.471,6.443-6.287,9.6-2.215,3.867-2.108,8.084-6.278,11.742M1050.7-89.549c-.568,1.458,1.3,4.161,2.083,2.133.577-1.454-1.289-4.163-2.083-2.133M851.741,108.862v-4.269c-3.636-.078-6.507.247-8.373,1.068-.634,2.816,2.9,3.5,8.373,3.2m343.467-229.346c-2.993,1.553-3.078,4.129,4.191,3.2.11-1.839-1.619-2.739-4.191-3.2m-2.1-26.67a57.42,57.42,0,0,0-8.37,6.4c-2.654,1.742-25.327,1.017-18.852,4.274,9.4-4.106,34.72-.1,37.7-7.463-2-1.834-6.573-2.347-10.475-3.208m-27.222-99.207c11.391.314,16.5,2.5,29.318,4.269-2.513,4.352,3.554,2.345,6.287,3.2,1.142.369.656,2.721,2.093,3.206,1.393.475,4.709-.323,6.278,0,1.471.3,2.6,2.861,4.191,3.2,2.726.575,4.759-1.135,6.287-1.068,4.6.206,6.607,4.158,10.469,2.134,1.857-2.876-4.182-1.234-6.278-2.134-3.335-1.435-2.937-4.324-6.287-5.34-2.472-.748-8.232.81-8.383-1.062,5.641.732,4.053-2.206,6.287-3.2-5.252-2.695-6.632,2.044-10.475,3.2-3.962-4.027-20.232-1.781-23.031-6.4-6.19-.759-14.78-.289-16.756-3.2,3.655-.985,4.618-3.337,4.182-6.4-6.933-3.482-16.649-3.6-20.938,1.066-3.6,4.062,6.209,6.66,2.1,7.47-4.518-1.922-7.407-3.023-6.287,2.134,6.7-1.218,17.358,1.3,18.861,1.066,1.43-.228-.766-2.211,2.086-2.134m-255.5,87.471c-4.5,2.188-1.092,5.072,4.182,5.34,3.329-1.6,3.071-6.09-4.182-5.34m299.479,27.731c.866,2.571-3.821,2.324-2.086,5.34,6.318,1.643,5.515-5.518,2.086-5.34m4.191-10.659c-1.092-9.459,6.378-20.2,2.1-27.738-4.872,8.464.48,26.335-10.475,28.8,6.055,1.073,9.82,3.911,14.667,0-3.009-2.352-5.1,1.346-6.287-1.061m-10.469,66.139h4.192c-.009-1.066,1.691-1.269,2.086-2.135-2.679-.06-2.9-1.368-6.278-1.066ZM1121.9-223.958c.326,1.258-.361,3.028,2.1,3.2,1.283-.993,4.875-3.939-2.1-3.2m67.018-57.6h4.191c0-1.066,1.7-1.269,2.1-2.134-2.692-.057-2.9-1.368-6.287-1.066ZM728.18-167.422c.307,1.424-7.031,3.967-2.1,4.274,1.164-.676,8.511-3.224,2.1-4.274M943.895-7.411c1.65-3.681-1.954-4.687-6.287-5.329.48,2.012-2.362,2.351-2.1,4.267,2.833.332,4.016,1.514,8.383,1.062m-146.6-117.341c-.537,8.631,8.442-7.057,0,0m423.05-243.212c6.488.4,8.521-5.139,2.1-5.335-1.766,1.241-2.77,2.855-2.1,5.335M759.593-223.958c-.119.655-.307,1.264-2.1,1.068v2.134c5.154,1.654,6.159-3.626,2.1-3.2m75.4,193.078h-6.287q-.565,3.494,6.287,3.2Zm370.682-62.933c-2.413,1.258-2.362,3.764-2.089,6.4,1.167,2.882,5.713-6.849,2.089-6.4m167.548-130.145c-.119.655-.32,1.264-2.1,1.068v2.134c5.151,1.654,6.158-3.626,2.1-3.2m-2.1-328.546c1.258,1.886-6.14,4.419,0,5.324,1.4-2.13,7.228-4.56,0-5.324M1352.277-366.9a4.549,4.549,0,0,0-2.1,5.329c6.632,1.571,10.071-6.134,2.1-5.329m8.392,147.206c4.766.3,7.856-.258,8.364-2.128-5.324-.559-8.116-1.823-8.364,2.128m16.756-229.352c4.248-2.848,1.967-4.05,4.182-6.4-6.974-.424-11.693,5.744-4.182,6.4m8.351,182.407c-2.682-.049-2.889-1.357-6.278-1.066-3.247,2.631,7.112,3.145,6.278,1.066m-312.214,11.809a13.435,13.435,0,0,0,8.373-.129,31.158,31.158,0,0,1-3.049,8.737,44.162,44.162,0,0,0-5.324-8.608M1067.446-461.3c5.286-3.949,4.935,5.889,0,0m0-12.632c7.122,4.274-5.559,5.839,0,0m8.166,53.922c.135-.339,2.946-1.782,4.069-1.151,1.421.812-2.036,1.241-2.036,1.151.078.854-.3,6.967-2.033,5.744-.847-.6-.307-4.95,0-5.744m8.141-57.346c-4.389-7.424,5.49,9.228,0,0m2.055,6.877c.766-2.179,2.566.731,2.027,2.285-.772,2.188-2.6-.722-2.027-2.285m6.13,111.268c-3.724-3.918.248-5.5,0-10.32,3.485-.055,5.271.851,6.086,2.3,1.879,3.955-4.765,1.089-6.086,3.434-.806,1.382,3.6.566,4.069,1.152,1.92,2.456-4.05,4.062-6.127,6.877-5-.129-.424-3.792,2.058-3.441m-2.058-72.263c5.264-3.955,4.941,5.889,0,0m0-13.77c2.943.263.737,3.425,4.075,3.439-2.306,3.688-5.81-1.1-4.075-3.439m4.075-34.414c3.554,1.842,4.427,5.162,4.069,9.178-3.991-1.592-6.554-7.445-4.069-9.178m6.115,18.357h-4.063v-2.308h4.063Zm8.176,2.291c-1.641,3.983,3.052,4.408,2.027,8.035-5.81,1.089-10.108,1.082-16.317-1.151.533-2.682,8.966-.665,10.209,0,2.761-.358,1.688-2.873,2.036-4.594-.627-1.553-5.114-.949-8.176-1.145-6.472-1.576,7.213-1.128,10.221-1.145m-8.176,11.474c7.382-1.082,2.852,4.521,4.094,6.879-9.726-.145-2.72-2.6-4.094-6.879m14.284,26.375c-2.94,1.375-3.426,5.262-4.082,9.185-.286,1.777,1.521,5.831,0,10.324-7.511,1.068-3.705-6.049-2.027-6.882-6.864-1.184-3.169,3.568-4.082,5.737h-8.157c-1.873-5.146-3.423-12.822,0-18.363.311-.542,6.171-2.554,6.111-2.291-.041.129-.223-6.189,0-5.732-.577-1.235-4.016-.789-4.094-2.291-1.092-2.552,3.9-1.638,4.094-3.452,2.522-3.7-6.594-.872-4.094-4.588,4.26,2.522,6.607-1.009,10.221,1.152-4.521,6.055,1.857,7.373-2.046,13.765.329,1.352,3.711.972,6.118,1.145-2.275,1.415-1.779,2.358,2.036,2.291m-8.154,52.777c3.087-4.057,3.871,2.105,2.046,2.3-1.22.111-2.563-1.609-2.046-2.3m17.785,92.374c-.791,3.9,5.374,4.235,6.3,7.241,7.41,1.872,10.8-3.575,12.562-1.061-5.183,6.965-10.428,13.893-12.562,22.4-14.353,1.228-14.808,9.524-27.222,11.737,1.678-3.7-3.122-4.1-2.1-7.468-6.387.049-10.67-.979-12.565-3.2a17.709,17.709,0,0,0,4.458-5.966c2.842.838,1.371,4.108,5.164,4.387,5.007-2.7-3.027-2.128-2.023-5.732,1.588-.265,4.031-.028,4.069-1.152a17.56,17.56,0,0,0-6.751,1.279,21.539,21.539,0,0,0,1.371-6.681h4.455a17.247,17.247,0,0,1,2.974.8c-4.273-4.721,5.82-5.218,6.127-5.714,1.6-2.705-1.1-3.951,0-8.04,5.65-.967,10.814-1.888,15.74-2.832m-5.537-135.965c5.857-1.8,3.175,7.68-2.058,6.882-.05-2.7,3.526-3.381,2.058-6.882m18.231,133.239a5.262,5.262,0,0,0,1.977.376c-1.487-1.733,9.885-1.733,8.383,0a4.538,4.538,0,0,0-2.1,5.328c-5.948-.524-3.021-5.575-12.562-4.262-3.608,2.7,3.188,4.135-4.191,4.262-4.163-.3,2.312-2.631-3.426-3.122q6.283-1.215,11.915-2.582m13.161-104.328c-.982,1.971-1.1,3.965-3.009,5.474-2.544-.549-3.438-.184-3.736.524-1-.766-1.1-1.994-4.439-1.576-1.578,1.376-3.962,2.331-5.44,3.755a3.266,3.266,0,0,1-.508-.385c1.073-6.252,8.731-6.118,17.132-7.793m1.39,3.357c1.164-1.733,4.926-2.554,6.278-4.256a9.291,9.291,0,0,0,.546-1c5.719-1.452,10.328-2.82,15.435-4.071,7.686-1.89,14-3.716,20.082-5.515-.257.916.019,1.417,1.638.971a8.633,8.633,0,0,1,.734-1.669c3.366-1,6.717-2,10.19-2.972,2.036-.57,4.075-1.091,6.089-1.581a16.568,16.568,0,0,0-2.356,3.023c-4.041,7.708-3.6,14.227-12.562,17.066,2.811.7,3.9,2.291,4.191,4.274-5.434-.985-5.7-.676-8.392.341-2.664.127-5.371.325-8.094.542a12.827,12.827,0,0,1,3.912-6.224c4.86.348,8.035-.173,10.478-1.061.308-2.642.4-5.179-4.191-5.336-6.9,2.84-10.2,7.509-12.3,12.794-10.955.905-22.14,2.012-32.257,1.032.6-2.139-.856-4.216.583-6.362m34.491,9.034c1.073-.139,2.127-.279,3.181-.418a1.682,1.682,0,0,0-.226.932,8.941,8.941,0,0,1-2.955-.514m9.487,4.842c-3.755,1.677-1.779,6.27-4.54,8.448-1.368.348-2.8.743-4.27,1.1a13.94,13.94,0,0,1-1.656.053,17.38,17.38,0,0,0,.464-6.951c3.457-1.039,6.745-2.178,10.049-3.3a1.348,1.348,0,0,1-.047.648m6.83,10.062a27.059,27.059,0,0,1-11.554,3.286c.207-.459.4-.923.6-1.382a28.007,28.007,0,0,1,10.952-1.9m-8.147,14.91c-5.129-.485,3.394-2.486,6.115-2.289a17.989,17.989,0,0,1-6.115,2.289m-6.14-11.469a.732.732,0,0,1,.078-.034c-.013.012-.019.023-.031.034Zm2.064,19.5c-5.961,1.678-3.1.1,2.027-1.144,4.251-1.016,1.17.245-2.027,1.144m-12.238,6.879a7.665,7.665,0,0,0-2.252.145c.282-.706.549-1.421.834-2.111a9.13,9.13,0,0,1,3.448-.326c.376.985-.8,1.091-2.03,1.158.044,1.112,2.485.893,4.063,1.135-.505,1.451-4.041,1.167-4.063,0m-4.536,1.05c-1.757-.353-.7-1.5,1.3-2.375-.427.794-.875,1.581-1.3,2.375m-19.953-41.185c-4.468,3.491-13.048-1.329,0,0m-26.993,123.993c-.477,7.186-12.675.978,0,0m-25.126,21.335c-5.3-2.022,1.926-3.738-2.086-6.4a16.687,16.687,0,0,0,6.275,1.068c-.9,2.028-6.011,1.925-4.188,5.335m-8.373,29.866c-7.319-3.776-3.25-7.018,0-11.737,3.156-4.609,5.766-9.715,8.373-12.792.088-1.828-1.562-2.762-4.182-3.2,1.362-1.809,4.8-.676,4.182,1.068,6.842-2.211,9.311-6.637,8.38-12.8-2.83,2.592-4.191.665-6.284,2.135-8.034-1.179,7.865-4.235,6.284-2.135,4.132-1.8,6.146-4.682,12.555-5.329-10.19,14.721-20.053,29.6-29.308,44.8m-52.361,70.406c-8.044-1.094,1.911-6.2,2.1-9.609,9.465,1.821-.486,6.941-2.1,9.609m-4.213,10.671c-.951,2.146-3.912.861-2.074-3.206,1.362-3,2.435,2.464,2.074,3.206m0-28.811c12.238,2.419.957,9.056,0,13.872-8.621-1.915,1.59-8.866,0-13.872m-10.447,20.275c3.655-2.179-1.569-2.095,2.1-4.272,2.814.7,3.893,2.283,4.182,4.272Zm-6.3,33.067c-4.486,6.821-10.318,13.514-14.657,20.268-4.411,6.893-7.457,14.3-12.555,21.335-2.444,3.369-6.325,6.235-8.389,9.6-2.011,3.3-2.049,7.3-4.185,10.671-1.267,2.012-4.747,4.152-6.265,6.4a64.518,64.518,0,0,0-4.2,7.475c-3.664-4.151,4.022-8.386,6.3-12.8,2.472-4.872,1.7-10.129,4.169-14.933.3-.568,3.956-1.738,4.185-2.134,1.23-2.056,2.88-5.179,4.191-7.475,4.687-8.146,5.17-13.878,16.753-18.129-.129-3.1-.229-8.423,2.105-11.73-.417.586,2.811-3.45,2.1-3.2.157-.055,4,1.38,4.179,1.068.279-.464-2.463-2.711-2.083-4.262.006-.1,1.638-2.269,2.083-3.208,1.154-2.368,4.562-3.821,6.278-6.4a64.744,64.744,0,0,0,6.3-12.81c7.373,5.141-1.735,13.369-6.3,20.275m-16.74,5.335c7.316-11.765,13.057-18.4,16.74-30.932,7.542,1.445,3.479,4.486,2.1,7.463-.834,1.8-5.4,4.855-6.278,6.4-1.468,2.587-.445,6-2.1,8.538-.355.559-3.94,1.738-4.179,2.134-1.352,2.262-1.07,5.381-4.2,7.47.863,3.849-3.812,1.465-2.083-1.068m8.38-51.212c-3.049-2.866-8.872-5.783-8.38-8.536-.141.81,8.012-1.382,4.188-4.251,6.663,5.848,15.216,10.731,14.648,20.255-7.4.549-6.962-4.151-10.457-7.468m-4.637-97.278c.207.06.373.049.565.094-.031.039-.082.078-.119.118-.207-.035-.38-.1-.574-.131a.926.926,0,0,1,.129-.081m23.485,81.282c3.47,5.007-1.211,7.436-2.1,12.8-10.588-2.066-11.906-8.866-16.753-13.865,8.1-.565,10.218,1.9,18.849,1.066m-41.9,11.739c-1.264,4.781,1.474,9.766-2.1,14.931-1.136,1.671-5.534,2.448-6.281,4.264-2.7,6.625-1.139,12.536-4.17,19.2-2.94,6.438-5.751,9.1-10.488,13.879-3.627,3.648-5.154,5.975-10.469,9.6-1.142.766-2.281,4.112-6.287,3.2-2.751-3.893-5.321-9.056-10.469-13.867,7.611-2.139,10.889-2.619,16.756-7.463,2.921-2.418,5.8-6.256,4.2-12.8-.687-2.76-1.49-6.529-6.3-7.463,14.67-5.838,19.3-17.01,16.756-28.811-.38-3.356,12.982.346,10.466-6.4,15.633.642,18.554,7.091,8.376,11.739m-62.811,12.794c-9.989-.464-18.184-.079-25.145-2.13-4.718-1.392-8.982-7.754-14.66-9.6-3-.978-10.2-.229-12.565-1.061-.486-.18.527-2.04,0-2.134-4.339-.8-5.7,1.324-8.38,1.066-1.93-.189-1.889-2.146-6.278-2.141-5.782.023-14.579,2.474-23.034,3.208-3.7.312-12.521-.011-12.562,0-10.409,1.412-16,5.758-33.509,4.257-2.742-4.648-6.337-8.855-6.287-14.921,4.926,4.117,11.937-.288,16.753,0,5.591.318,8.951,4.221,14.66,2.133,6.576.5,5.54-2.876,10.478-3.208v-7.463c11.162-1.692,22.118-.487,33.5-2.139,5.064-.727,7.489-2.654,12.562-3.2,10.011-1.061,16.577-.134,25.129-2.13,1.032-.24,3.445-2.026,4.191-2.139,5.242-.8,11.708-.111,14.657-3.2a16.905,16.905,0,0,0,6.287,1.068c6.146,1.989-2.143,3.888-2.1,4.272.308,2.135,5.114,1.2,4.191,4.251,3.188,1.6,13.569.067,16.766,1.075,2.55,2.051-3.981,1.708-4.2,2.139.2-.379-.009,7.318,0,7.463.389,2.4,2,4.738,4.2,5.337-8.947,5.206-15.209,11.954-14.66,19.2M772.167-174.892c7.15-.612,9.741-3.563,18.839-3.194,5.085,5.949,4.031,15.011,8.383,21.33-8.383,1.417-10.905,5.825-20.944,6.4-.179-9.152-5.782-15.544-6.278-24.538m14.569-43.754c1.1.169,2.215.332,3.366.536,2.83.5,6.456,2.074,8.154,2.285,3.178.381,7.112-.542,10.2,0,4.191.738,5.9,3.023,10.19,3.454,7.689.748,16.944-.485,26.519,0a81.42,81.42,0,0,1,9.415,1.166c-2.811,1.922-5.324,3.918-4.935,6.448-4.64,1.775-5.236,2.887-8.364,3.194,6.516,2.04-3.288,4.643-2.1,7.47,3.467-3.866,8.342-5.358,14.651-5.335-9.446.1.922-3.219-2.1-6.4,2.682.055,2.908,1.364,6.287,1.068-1.55-1.782-.43-3.844,1.468-5.716,1.343.168,2.673.319,4.025.386,2.579.127,5.042.162,7.448.15,2.811.944,4.11,2.649,3.815,5.179-3.508,1.883-7.015-.951-14.66,0,3.078,4.414-1.035,10.262,2.086,13.865.276.319,3.683.72,4.188,1.066,1.521,1.039.311,2.37,2.1,3.2.725.339,3.278-.224,4.191,0,4.916,1.184,1.559,2.453,8.373,1.061,5.729-1.156,4.238,0,8.383,0-.674,0,4.668-.872,6.278-1.061,8.279-.972,15.037-7.158,25.136-5.337,3.147,6.358,3.347,1.837,0,6.4,2.466,1.62,6.275,3.33,8.383,5.342,2.711,2.592,5.013,4.362,2.083,7.463a82.669,82.669,0,0,0-12.562-2.135c-6.9,8.584-31.561,8.112-48.169,11.744-8.787-2.291-19.159-3.754-33.5-3.206-4.737,2.931-2.78,9.251-12.562,9.6a31.791,31.791,0,0,0-16.756-7.465c-4.361-4.535-6.315-10.3-8.383-16,4.458-3.425,11.878-5.326,23.043-5.342.358,3.021-1.807,7.318,4.179,7.475,3.319-2.229,4.847-5.352,12.574-5.342,8.7,1.615,8.4,7.811,12.555,11.739,5.82-.219,21.572,3.815,23.043-1.068-1.374-4.475-7.272-2.275-12.574-4.274-9.606-3.607-16.646-11.3-27.216-12.794-7.419-1.048-14.419,1.661-23.04-1.066-.132-3.893,11.777-5.2,6.287-8.536-8.424-.732-11.969,1.022-18.852,1.068a4.556,4.556,0,0,1-2.1,5.335c.784,2.453,8.383,1.424,10.478,3.2-9.553,2.264-8.035-.081-10.478-3.2-.477-.611-3.417-1.145-4.191-2.135-2.224-2.848-.822-7.6-2.1-11.73-1.17-3.812-2.77-7.811-4.27-11.756m-84.311-53.379a4.63,4.63,0,0,0,2.027-4.586c2.682.4,3.2,2.017,6.1,2.291-1.333,1.537-4.351,2.13-8.125,2.3M673.862-515.232c-.226-2.188-1.45-2.077-3.752-1.915a12.558,12.558,0,0,0,1.569-3.046c5.355.291,7.41-3.044.656-1.888a12.685,12.685,0,0,1,1.362-2.966c.147-.212,3.068-.6,3.385-.882a3.327,3.327,0,0,0,1.261-2.788c4.759,2.788,1.045,6.66,9.8,8.917-4.389,1.738-11.482,1.945-14.284,4.569m8.176,285.653c4.163,2.6,12.345,4.269,12.226,8.029-8.282-4.906-16.21-10.006-24.47-14.917,5.6-1.341,7.912,4.2,12.245,6.888m6.108,8.029c-.138-.1-3.4-1.548-2.036-2.292.766-.441,10.635,9.074,2.036,2.292m-4.072-2.292c-2.7-.411-3.228-2.026-6.117-2.307.834-2.855,7.9-.067,6.117,2.307m-12.235,5.732c-3.379-2.647,3.614,1.939,4.072,2.285,2.027,1.586-.26.72-4.072-2.285M655.5-229.579c6.19.715,5.613,5.252,10.2,6.884,5.145,1.272-12.969-2.074-10.2-6.884m6.127,20.637c-7.548-3.468,6.2-3.859,0,0m-8.154-3.429c3.388-2.285-.2-1.458,0-4.592-6.425,1.278-4.618.1-12.245,0,.508-1.251,4.072-.784,4.091-2.291,1.989.027,1.569,1.391,2.036,2.291,4.3-4.163,16.656,4.189,6.118,4.592m-16.317-26.4c2.5-3.457,7.787.817,10.2,1.156.367.985-.8,1.092-2.036,1.152h-4.091c-.358-.978.8-1.084,2.055-1.152-.348-1.332-3.733-.964-6.127-1.156m0,13.789c-.766,2.172-2.591-.748-2.045-2.308.775-2.178,2.6.743,2.045,2.308M655.5-267.444c8.91,2.213.22,7.1,0,0M641.228-195.17c-1.729-.212-1.917.441-2.027,1.145-4.173-5.85,12.216,4.514,2.027-1.145m-12.235-32.123c-.219-.194,1.986-1.754,2.036-2.285-.009.057-1.939-.078-2.036,0,6.168-4.865,3.3,5.084,0,2.285m-12.226,3.452c3.646-3.078,5.512,4.449,10.18,4.588-2.824,2.614-7.031-3.593-10.18-4.588m-2.036,17.2c-1.779-.815-2.761-2.34-4.091-3.439-4.709-3.882,14.381,8.211,4.091,3.439m-10.212,6.889c-1.716-.217-1.914.443-2.024,1.145-.627-1.832-3.915-3.828-4.072-4.594-.916-3.815,1.867,2.834,8.144,3.448-.38,1.3-2.049.632-2.049,0m-22.425-4.6c.348-1.325-.436-2.033-2.027-2.292,3.837-2.614,13.907,1.219,16.311,5.744-5.315,3.642-4.769-5.67-14.284-3.452M561.7-207.79c5.383-.342,5.255,2.4,6.118,4.585-2.98-.993-6.475-1.719-6.118-4.585M532-227.99c-.06-.064-.06-.131-.11-.191.05.016.11.034.169.055Zm-15.175-10.784c.995-.775-6.3-.893-4.072,0-1.537-.609-1.769-.888,0-1.144-.157.027,7.438-1.56,4.072,1.144m-26.993-42.9c-.756-.893-.33-2.306-1.55-2.984-2.761-1.512-8.194-2.732-10.171-4.581-.9-.826.935-2.636,0-3.441-2.733-2.306-8.173-3.769-10.209-5.732a3.326,3.326,0,0,1-.963-1.592,56.34,56.34,0,0,0,23.429,9.754c.675.877-.765,2.448-.05,3.3.217.258,2.017,1.458,3.633,2.827a14.619,14.619,0,0,1-4.119,2.448m-3.586,21.106c-4.8,3.7-8.232-4.029,0,0m-4.072,8.038c-2.394-.171-1.054-1.355-2.055-2.3-4.053-3.8,4.169.941,4.091,1.152.2-.593-3.476,1.045-2.036,1.144M453.617-270.88c2.008-3.519,5.443,1.313,8.166,1.156-2.008,3.508-5.443-1.329-8.166-1.156m-8.141-4.586c2-3.526,5.421,1.313,8.141,1.145-1.986,3.521-5.443-1.318-8.141-1.145M441.4-299.673c-.179-1.7,2.72-.787,4.6.185-1.343-.157-3.012-.157-4.6-.185m-8.176-7.911c5.224.108,2.911,4.47,8.154,4.588-2.9,3.016-7.746-2.425-8.154-4.588M427.12-285.8c3.586,1.039,3.357,4.233,8.144,4.6-2.739,2.944-13.12-2.928-8.144-4.6m24.452-8.022H447.5v-2.3h4.072ZM453.46-557.57a17.861,17.861,0,0,1,.157,5.652c-.088-.011-.138,0-.217-.005-3.975-.866-6.585-2.435-7.667-4.8a50.583,50.583,0,0,1,7.727-.847M404.666-290.389c-2.692-.681-2.733.268-4.085-1.143-3.812-4.031-11.856-6.168-14.259-11.464,6.792-2.208,8.122,2.658,10.19,3.441,1.587.586,1.845-1.3,4.069,0,3.934,2.255,2.027,1.278-2.027,1.144.656.023,1.71,2.262,2.027,2.291,1.145.108,2.893-.893,2.049-1.144,6.118,1.864,9.246,5.592,10.209,9.173-.875,3.235-6.118-1.772-8.173-2.3m-19.348-20.479c-3.388-3.124-5.911-6.3-9.186-9.341-2.811-2.61-9.537-4.369-8.176-8.035,10.478,2.509,11.213,9.851,16.317,14.922a24.6,24.6,0,0,0,1.967,1.609c-.339.274-.627.559-.922.844m-13.6-168.475a4.185,4.185,0,0,0,.3-.6c4.27-.7,9.214-1.8,10.209,1.437-9.732-.542-11.561.491-6.1,3.446a19.842,19.842,0,0,0-9.606,1.325c1.669-2.419,4.21-4.191,5.2-5.6m-6.5,23.621c.141.413.27.8.4,1.205-3.865.923-7.558-1.489-.4-1.205m-8.461,7.094c3.915-.593-.825-.962-3.755-.916.838-.134,1.889-.15,2.723-.284h6.127c.188,1.47-2.362,1.385-5.095,1.2m-1.032,128.419h-4.072V-324.8c3.655-.157,4.289,1.408,8.144,1.144-1.747.928-1.192,3.154-4.072,3.443m17.39-162.877a36.066,36.066,0,0,1,5.035,1.133,19.151,19.151,0,0,0-5.324.229,9.62,9.62,0,0,0,.289-1.362m-4.449,21.671c-.078-.286-.138-.625-.229-.9,1.154-.079,2.482-.049,3.6-.139h6.118c-.2,2.017-5.5,1.156-9.484,1.039m19.686,3.552c-2.952,1.784-7.956,2.414-14.275,2.3,2.962-1.781,7.965-2.412,14.275-2.3m3.087,150.021c3.1,2.174,5.98,4.382,7.109,7.135a42.245,42.245,0,0,1-7.962-5.492,2.987,2.987,0,0,0,.853-1.643m-50.293-62.082c.505-.217,1.023-.436,1.528-.642a3.605,3.605,0,0,1,.816,1.038c-.853-.161-1.55-.256-2.344-.4m-5.82,32.509c-1.073-.544-.518-1.795-.973-2.636,2.262.949,6.949,1.327.973,2.636M1220.4-342c5.035-1.855-6.632,3.935-10.2,4.583-4.5,2.178,5.393-4.625,10.2-4.583m-73.365,209.771c-.656-.139-1.343-1.86-2.1-2.128-6.9-2.419-19.614-.658-27.231-2.128-10.428-2.028-38.187-17.714-37.682-20.273a27.584,27.584,0,0,0,4.182-2.134c2.645-2.352,3.429-4.47,10.478-4.258,1.045,3.408,8,5.716,12.562,9.6,3.369,2.866,3.536,4.685,6.274,6.4,4.693,2.915,18.952,9.716,25.13,10.671,4.944.761,15.26,2.749,18.852-1.066-7.112,2.044-10.008-.252-14.66-1.075-11.244-1.982-12.48-1.424-16.753-5.322-5.992-5.5-13.587-14.118-16.747-19.2-4.191-1.77-9.741-2.876-10.466-6.408,4-2.575,1.308-8.571,2.086-12.8-2.544-1.542-8.364-1.431-8.373-4.262,6.344-2.236,4.053-6.247,6.287-9.6,3.335-5.035,7.457-9.665,10.466-14.938,2.146-3.748,3.648-8.068,6.287-11.726.994-1.392,6.089-3.962,6.268-4.269,2.434-4.05,1.211-8.688,4.191-12.8,6.682-.635,6.475,2,10.466,0,.944-4.687-4.119-4.669-6.275-5.335,4.9-3.789,4.37-8.222,6.275-12.8.624-1.463,3.288-2.592,4.191-4.262,2.4-4.436,4.242-10.548,6.287-12.8a57.634,57.634,0,0,0,6.984-9.111,77.051,77.051,0,0,0,15.395-8.4c-.461.33-2.783-.4-2.045-1.144.4-.376,3.473-.778,4.078-1.147,3.448-2.095,2.814-3.385,6.127-4.585,4.414-1.615,5.327-4.286,8.144-5.732,1.343-.706,4.809-.575,6.121-1.152,3.435-1.491,2.623-4.989,2.048-4.592,2.115-1.445,6.739-2.116,8.147-3.441,1.622-1.514.094-3.789,2.049-5.737,1.66-1.654,7.09-2.481,8.154-4.586,2.306-4.571.568-3.621,4.094-5.744,1.418-.859.612-2.485,2.017-3.434.561-.376,3.542.379,4.078,0,1.6-1.091,2.366-3.206,4.094-4.588,2-1.632,4.339-2.781,6.115-4.585-8.609.194.044-1.766,0-3.438-6.316-.607-4.537,2.688-8.16,2.285-.508-.056.056-1.777-2.049-1.145-4.417,1.325-12.314,7.811-16.3,5.732,3.627.431-.289-2.128,0-2.285,5.494-3.083,5.839.085,10.2-2.3.605-.346-.4-1.821,0-2.285.32-.413,3.592-.66,4.069-1.151,1.4-1.458.289-3.341,2.027-4.592,4.847-3.453,14.6-3.016,12.238-6.882-6.149,3.06-18.365,8.742-28.537,5.737,8.038-1.971,18.315-2.7,24.461-5.737-5.779-.949-5.293,1.615-10.19,1.151.637-2.7,6.318-2.571,8.147-4.587-4.439-.856-7.859,2.776-12.217,3.436.226-.039-2.7-2.437-4.094-2.291-.257.028-2.958,2.022-4.078,2.291-3.586.87-10.315.665-14.271,1.151-.32.039-.678.129-1.007.191,1.44-3.2,2.971-6.348,4.678-9.408,2.168-.755,4.458-1.444,6.526-2.254a23.449,23.449,0,0,0-4.747-.7,52.076,52.076,0,0,1,8.439-10.542c.113-.655.32-1.258,2.086-1.061-2.5-6.016,1.424-12.5,5.079-18.621,13.892-3.312,25.97-5.786,25.851-14.965s-12.922-13.812-30.588-12.616c-1.333.1-3.984,2.335-8.169,3.441-3.809,1.006-9.123,1.463-12.223,2.3-6.275,1.682-13.584,3.789-21.117,5.951,1.073-4.29,1.117-8.8,3.47-12.42,2.372-3.641,12.135-7.581,4.191-11.737.546,9.3-15.028,15.346-9.726,24.743-15.385,4.414-31.514,8.949-42.071,10.671-1.587-4.318,2.482-5.492,2.03-9.173-3.878-.258-4.511,1.283-8.144,1.144-3.021-3.272.565-2.944,0-4.6-.172-.4-1.967.074-2.058-1.145-.1-1.406,2.431-4.447,2.058-5.732-.649-2.089-3.837-3.7-4.094-5.732s2.036-3.7,2.036-5.744c0-12.076-6.7-21.586-6.118-29.758,6.347,1.548,15.46-.268,13.854-4.728-8.878-.535-12.775,1.548-15.184,4.392-8.116-1.564-7.7-5.922-8.872-11.19a33.847,33.847,0,0,0-2.046-6.888c.279.581-1.678,1.334-2.017,0-.4-1.436,2.318-2.794,2.017-3.443-.06-.2-3.523-1.68-4.069-2.291a101.287,101.287,0,0,1-8.147-10.324c-3.454-5.262,1.6-4.389,2.027-8.038-7.705,1.666-3.912-3.152-10.19-2.3-1.807,3.694,6.717,1.583,6.108,4.6-5.911,2.291,4.361,11.2,0,12.614-9.286,1.733-6.444-9.277-10.19-6.877-2.654,2.85,4.549,5.564,0,5.739-8.781-2.164,1.023-7.661-6.118-10.331,1.054-3.162,13.656-7.016,4.085-9.173-.339,1.7.734,4.23-2.039,4.581-1.28-5.492-2.742-1.625-8.151-1.152-.43-3.289.515-5.813,4.069-6.87,3.031.256,2.205,1.161,4.082,0-2.422,1.507,1.023-2.453,2.039-3.452a44.228,44.228,0,0,0,4.082-4.583h-8.166c-1.1,5.119-4.816,8.767-10.2,11.476-1.688-3,6.158-6.3,0-8.04v3.453c-5.3-4.285-7.04,1.091-12.235,0-1.631-.353-1.669-3.408-4.072-3.453-.756,0-2.695,3.453-6.127,2.3.665-2.7,3.225-4.3,2.055-8.035-11.442.683-14.143-8.34-22.444-5.732a6.954,6.954,0,0,1-1.086-.976,9.331,9.331,0,0,0,4.508-7.207h-5.054c-1.1,2.245-4.27,3.413-6.8,4.911-1.468-5-8.938-3.536-7.884-.169-1.032-.245-2.023-.545-2.99-.865,2.074-5.381,3.35-10.558,5.86-15.3,1.459-2.76,4.223-5.278,5.057-7.909.863-2.677-.439-5.2,0-7.911,1.17-7.006,7.288-15.4,8.439-21.972.536-3.067-.831-5.972,0-8.788,1.631-5.464,7.846-9.877,6.745-14.944-.37-.676-1.4-1.016-3.379-.877-5.471,7.481-4.417,16.161-6.742,24.609a191.416,191.416,0,0,1-10.121,27.238c-2.475,5.416-4.4,10.911-6.745,16.71-1.051,2.587-2.362,5.079-3.633,7.617-2.739-.877-4.64-1.085-4.728,1.246-5.976-4.98-2.968.094-8.154,1.143v-3.441c-7.15-.139-18.325,1.179-20.411,2.3a40.287,40.287,0,0,1-10.19,3.441,117.573,117.573,0,0,1-13.726,2.049c.628-1.129.9-2.314,1.791-2.933,4.05-2.742,12.034-3.776,15.194-7.027-.439-3.3-2.651-5.659-6.755-7.034-3.536,3.475-10.667,5.543-6.755,10.548-2.074,1.632-6.613,4.627-7.329,6.923a47.037,47.037,0,0,0-4.847.909c-3.137.81-5.183,2.873-8.157,3.441-3.043.581-7.059-.423-10.2,0-1.023.152-4.38,1.962-6.121,2.3-8.6,1.661-17.038-.182-22.422,0-11.978.392-15.137,5.365-20.4,9.173-2.573,1.867-4.806,4.085-10.2,5.732-6.864,2.107-16.377.716-22.438,3.45.778-1.269-5.023-2.425-4.069-3.45.157-.154,5.449-.244,4.069-1.149-2.023-1.308-7.109-.229-12.232-2.28-.577-2.245-2.962-3.5-5.553-4.391v-1.318c-.091-.536-.251-1.039-1.679-.877.16.738-.477,1.061-1.33,1.267-.558-.139-1.133-.291-1.628-.418-.737-.184-1.164-2.045-2.027-2.3-1.631-.462-4.5.441-6.14,0-.775-.212-1.013-2.095-2.036-2.289-9.86-1.872-17.12.5-28.354.005v-13.189c1.082-6.229-1.459-11.471,0-17.068.756-2.889,3.962-5.7,4.191-8.531.715-8.52-4.737-17.211-2.1-27.743.088-1.133-.985-2.7-2.1-1.068,2.055,16.488-8.731,26.822-2.1,43.733v23.725c-9.048-.658-11.878-2.575-16.445-4.451-2.155,1.066-.668,4.177-6.039,3.447a1.464,1.464,0,0,0-.825-1.565c-.813-1.719-.279-1.223,2.761-3.026-6.158-1.274-13.885.39-21,1.318a40.349,40.349,0,0,1,4.179-5.035c.1-.536.26-1.032,1.691-.87-2.682-6.6,3.793-13.862,6.751-20.218-5.123-.985-2.858,2.575-3.376,3.513-.775,1.408-2.651,2.974-3.376,4.4-3.26,6.353-2.911,11.721-10.13,14.063a3.989,3.989,0,0,1,3.376,3.519c-5.305-.983-4.449-.413-8.42.877a.431.431,0,0,0-.022.168,14.981,14.981,0,0,1-4.549-1.094,10.649,10.649,0,0,1,2.87-4.354,19.527,19.527,0,0,0,8.433-.87c.257-2.18.326-4.269-3.379-4.4a16.863,16.863,0,0,0-9.136,8.988,9.08,9.08,0,0,1-2.623-2.3c-11.024-.487,6.049,3.434-2.045,4.585-6.2-1.5-11.758-3.328-18.344-4.585-1.522,3.916,7.489,1.894,8.144,4.585,1.4,2.024,2.234,3.559,0,4.6-3.884-1.233-6.287-8.855-11.821-5.912-.088-1.267-.445-2.523.408-3.808.935-1.429,3.975-2.107,5.057-3.508,2.334-3.046,1.55-6.676,3.376-9.678,1.042-1.692,3.009-1.775,3.379-3.514.524-2.52,1.042-6.1-1.691-8.786,2.513,2.866-8.709,10.083-3.376,12.3,1.073.454-1.688,1.1-1.688.882-.069,1.828.734,3.889,0,5.269-.678,1.272-3.984,1.569-5.057,2.643-2.482,2.49-1.111,5.435-5.073,7.027-2.654-.074-1.311-2.24-5.057-1.761-2.027,1.807-5.779,2.716-5.38,5.783a10.628,10.628,0,0,0-1.632-.39c0,3.821,3.417,3.279,3.765,2.061,3,.39,4.489-1.14,6.626.459a8.847,8.847,0,0,1-1.481,2.518c-.885.2-1.678.351-2.789.693a13.852,13.852,0,0,0,1.936.457,9.222,9.222,0,0,0-1.907,3.431,18.957,18.957,0,0,1-4.113-.436c-4.022,3.351-.7,3.709-6.118,5.721-7.062.921-8.609-1.264-12.226-2.28.489,5.139-12.79-2.006-14.29,3.429a34.425,34.425,0,0,0-12.267-2.2c.6-.418,1.252-.792.963-1.664h-3.376c-.06.776-1.045,1.078-1.5,1.65-7.332.1-15.683.891-24.612,1.061.141-2.693-4.013-2.576-6.118-4.583-1.133-1.1-.527-4.177-2.027-5.737-.894-.9-3.344-.921-4.072-2.289-1.757-3.258-.238-7.3-2.045-10.318-1.39-2.324-6.682-4.454-8.154-6.882-1.788-2.961.825-3.667,0-4.581-.885-1-5.791-.907-6.118-2.308,4.3-5.492-9.067-9.9-18.366-11.481,3.526-1.983-.088-2.714-2.024-3.436-4.242-1.579-6.02-1.19-10.19-2.291-3.824-1-5.544-4.435-8.176-4.592-9.2-.065-22.871,1.414-28.533,1.152a13.227,13.227,0,0,1-1.509-.191,1.466,1.466,0,0,1,.069-.586c2.136-4.984,10.281-10.2,15.178-13.174,2.033-1.241,6.435-2.755,8.43-4.4.935-.76.358-2.982,1.7-4.4.762-.815,4.5-1.959,5.054-2.636.813-.994-.756-2.5,0-3.508,2.384-3.155,7.934-5.557,5.054-8.792-16.16-3.861-17.6,7.1-20.238,13.177-7.777-.245-9.089,2.889-11.812,5.275.618,2.022,7.391.849,6.745,3.519-.725,6.235-12.693,9.536-15.037,14.336-3.5-1-7.021-1.839-9.942.228,6.278,1.8-6.576.844-8.173,1.152-.747.15-2.692,1.9-4.082,2.3-4.759,1.329-8.2,1.894-10.359,3.475-2.494.519-4.471,1.569-4.7,3.116a23.066,23.066,0,0,0-8.442-4.4c-2.463,2.531-8.659,3.111-10.108,6.15-2.453.487-8.722-1.016-8.442.882a4.637,4.637,0,0,1,3.376,1.759c-7.407-.63-6.751,2.938-6.751,6.159,2.908.346,4.329-1.3,5.063,0-3.118.837-3.118,1.9-2.3,3.182-1.929,1.751-2.742,5.857-4.232,7.2-.624.565-4.828-.219-4.091,1.152.289.535,7.41-.482,6.127,1.143-5.829,2.843-2.115,11.04-10.2,12.616,4.508.152.872,4.858,2.045,6.888-7.172,4.754-18.3,7.285-24.48,12.614,4.031,1.692-.885-.263-2.036,0-4.122.949-6.2,5.43-10.19,5.737,24.947-5.038,13.892,3.748-2.049,5.732,2.215.275,4.907,1.885,2.049,2.3-1.073.046-2.149.139-3.228.2-.467-2.843-1.1-5.4-1.183-6.882-.069-1.77,2.215-2.988,1.707-4.391-.715-1.909-2.642-4.865-3.376-5.269-10.827-5.882-5.484-15.514-5.067-22.853.141-2.342-1.766-4.7-1.688-7.027.1-3,3.338-5.727,3.379-8.8.041-3.261-3-7.2-3.379-10.541-.119-1.085,1.7-1.251,1.688-2.642-.019-1.264-2.193-1.571-1.688-3.51.549-2.082,3.128-3.48,3.379-5.273.138-1.173-1.98-1.666-1.691-3.515,1.691-11.6-3.216-25.278,0-37.793.668-2.6,3.2-4.6,3.379-7.032.119-1.772-1.311-3.358-1.688-5.268-1.013-4.978,1.427-9.985,1.688-14.945.157-3.351-2.94-6.944,0-9.665-4.42-.233-4.132,2.649-5.067,4.392-1.151,2.144.3,5.329-3.376,6.155,1.371,2.705,2.968,3.688,3.376,6.152.687,4.156-3.228,5.928-3.376,7.911-.119,1.53,1.449,3.736,1.688,5.268.8,5.312,1.233,10.535,1.688,13.184,1.867,10.844-2.789,19.994-3.376,26.363-.816,8.871,1.211,17.643,0,25.486-.179,1.145-1.55,1.219-1.688,2.631-.894,10.124.041,21.609-3.357,29.012-.138.268-3.128,1.345-3.4,1.754-1.211,1.927-.119,5.089-1.688,7.032-.577.743-4.292,1.594-5.067,2.642-.555.773,1.092,4.057,0,5.259-.2.251-2.977-.191-3.357,0-1.867.978,1.54,5.273,1.669,6.155.5,3.041-.06,6.365-.257,9.381-8.631,1.168-16.734,2.167-23.758,2.155,6.507,1.235,15.068,1.313,23.878,1.253a9.2,9.2,0,0,0,.138,1.274c1.393,4.6,5.415,7.316,8.442,9.674.715.549,1.183,1.354,1.688,1.759.656.515,1.333,1.186,2,1.789-.5.1-.941.229-1.478.307-6.595.983-20.54,1.218-22.416,1.145-9.713-.323-20.947-4.514-26.507,0,19.087,1.447,43.162-.012,50.968,2.307-4.072,3.062-21.371-1.318-22.435,3.431,7.062,1.837,10.855-1.581,16.317,1.156-12.712,1.47-24.433,1.867-30.591,2.291-3.981.281-11.915-1.3-10.19,1.145,13.647,2.022,21.158-1.378,26.5,1.145-1.4-.658-6.984.845-6.108,1.156,5.054,1.788,10.03-1.8,12.235,2.3.9-1.9,15.4-1.9,16.317,0-7.984-1.272-7.548,1.805-10.19,2.292-.157.028-.339.049-.5.072a19.531,19.531,0,0,0-7.41-1.2,5.851,5.851,0,0,1-2.94,1.989c-8.778.281-16.8.139-9.553,2.575H304.763c.4,2.352-2.146,3.046-5.562,3.247a25.736,25.736,0,0,0-5.067-2.541c-1.908.351-3.068,1.463-3.3,2.642-2.8.056-5.293.286-6.475,1.246,8.025.844,13.647,3.023,20.4,4.581-1.591.256-4.035.027-4.094,1.156,15.881.5,34.761-3.379,48.944,0-3.307,5.386-4.709,11.866-14.281,13.754,4.659,1.576,7.677-2.966,8.163,0,1.509,3.985-10.776,6.078-4.082,9.185a101.971,101.971,0,0,0,12.245-2.308v4.6c-3.853.229-20.163-.773-14.281,1.144,6.337-.109,11.322.508,14.281,2.3-4.251.671-6.595,2.407-10.2,3.441-2.692,2.871,8.075,3.581,2.036,4.587-4.966-1.5-10.369-2.749-16.307-4.587-4.668-1.442-9.961-5.509-14.284-3.441a17.707,17.707,0,0,1,6.118,2.3c-8.38,2.753-13.346-2.2-18.353,0,6.457-1.661,7.034,4.161,8.163,4.587,1.293.475,4.612-.258,6.121,0,.762.129,3.018,2.095,4.069,2.3,5.283.96,14.3-.408,16.311,3.434-9.923-3.088-.835,1.465-4.063,2.3-2.673-1.648-15.068-3.676-16.317-2.3,2.362.192,2.215,1.818,2.027,3.448,8.7.046,14.409.833,18.353,2.3,3.219,1.179,7.507,4.14,8.163,5.727-4.787-.364-7.649-1.8-14.271-1.145-.787-1.754-2.453-.162,0,1.145,6.315-.111,11.3.524,14.271,2.3-16.21,3.542-26.748-5.425-38.733-8.022-2.287,3.905,5.948,4.184,10.19,5.727,4.43,1.62,11.937,3.48,14.271,4.592.684.33-2.168,2.167,0,3.436.684.423,7.617,1.581,4.072,0-.013-1.507-3.567-1.039-4.072-2.291h8.154c-1.807,4.684.188,5.6,2.441,6.521-.047.021-.1.039-.138.062-1.509.787-2.234,1.189-2.9,1.495a117.652,117.652,0,0,1-13.688-2.34c-5.678-1.512-14.093-5.642-16.3-4.59,1.945,1.966,6.77,2.312,8.163,4.59-3.636.683-8.483-3.357-10.19,0,3.533,2.37,9.594-.676,14.259,0,.229.028,3.181,2.006,4.072,2.3,2.287.738,5.434,1.239,8.245,1.872-2.067,1.133-3.7,3.139-5.164,3.7a30.556,30.556,0,0,0,9.415-2.419c1.848.84,2.78,1.978,1.788,3.72-5.782,1.583-10.221-2.954-12.138-.094a6.854,6.854,0,0,1-.734-.33c-2.422-1.318-5.879,1.3-10.13-.877.775,3.644-7.887,2.335-11.809,3.519.069-1.211-.806-1.931-1.688-2.642-15.087-.921-26.152-3.944-42.18-4.391-.722,1.682-4.816,1.587-3.366,4.391,10.121-.173,16.088,2.889,30.359,2.642,1.688,1.168,1.6,3.263,5.067,3.51.069-1.207-.806-1.922-1.688-2.628,15.492.655,25.236-1.849,38.792-.882.229-1.257-1.082-1.7-2.325-2.183,4.878-.162,4.9,2.425,5.732,4.553-3.746.325-13.06-3.671-8.176-1.145.577,2.352,7.611,1.078,8.176,3.441.06.967.009,2.172-.031,3.429a31,31,0,0,0-6.733-.182c-5.114.6-8.242,3.15-10.13,4.389-7.608,4.984-14.936,10.576-11.809,17.582,14.789-1.38,22.833-6.268,28.671-12.307a18.621,18.621,0,0,0,3.438-.021c-.7,1.071-1.591,2.082-1.38,3.166.009.062.107.106.147.162a5.855,5.855,0,0,0-2.174-.162c-.985.074-9.336,4.811-4.082,5.734.019-1.152,3.564-1.443,4.082,0-5.911,2.188-6.723,5.843-6.118,10.329.336,2.688,9.823,6.364,2.036,9.178-1.729-4.772-2.8-9.9-6.118-13.77-.926,2.257-7.589,7.094-2.049,9.178.5-1.759,3.36-.162,4.072,1.151-4.546,3.542,7.818,7.392-2.023,10.318,5.967.085,4.458,4.375,12.226,3.454,2.591-3.5-6.965-5.85-2.027-6.889,4.618,5,3.934-2.887,10.19-3.441-2.673-.018-2.591-3.18,0-3.441,5.493-1.078,2.353,2.358,4.082,3.441,2.077,1.3,5.424-.072,6.118,2.3.031.1-3.693,1.078-2.045,2.291,5.045-1.481,9.892,2.569,10.19,0a5.066,5.066,0,0,1-4.072-4.586c2.045,0,2.425-.926,4.072-1.145,2.184,1.442,2.88,2.178,8.154,3.441-.11-.034.449-2.883,2.036-2.3.665.245-.546,1.976,0,2.3.637.341,3.576-.392,4.091,0,.6.441-.693,1.911,0,2.291,1.848,1.006,4.471,1.156,6.118,2.291,6.576,4.56,1.907,6.851,4.072,11.476,3.081.877,4.769,1.925,8.166,3.441,3.514,1.558,3.831,3.272,6.115,4.585,1.434.822,4.58.36,6.111,1.147,2.482,1.267.295,2.564,4.082,3.434-.179-.032,2.224-2.006,4.091-1.144,3,6.184,14.579,6.408,20.389,11.479,3.09,2.7-1.34,7.777,8.154,8.033.816-1.978-3.018-2.943,0-3.436,5.6.035,5.245,3.118,8.163,4.588,2.742,1.368,5.782,1.6,8.157,3.434,1.33,1.016.474,1.481,2.033,2.28-.734-.374,1.393-1.721,2.049-1.145,1.669,1.558,5.779,7.867,16.326,6.895-3.416,2.285.16,1.463,0,4.585,8.044-.872,8.2,3.789,10.171,4.581-1.073-.429,1.2-1.156,2.036-1.144,4.637.139,6.883,4.355,11.4,5.513-3.705.214-6.6,3.642-3.467,5.118,4.869.526,4.43-2.788,5.067-3.519.01-.012.069-.023.088-.035,1.8,2.6,5.54,4.085,7.319,6.686,3.994.342,4.053-1.541,6.1-2.289.4,4.235,5.522,2.386,10.212,3.446a6.935,6.935,0,0,1,1.547.861,16.372,16.372,0,0,1-1.647,2.755c-1.133,1.53-3.6,2-5.048,3.514a17.2,17.2,0,0,0-3.394,4.391c.041-.072,1.986.15,1.688.877-1.133,2.944-4.091,6.988-5.054,8.794-16.4,2.139-16.358,14.179-3.369,14.938,8.216.487,14.9-4.078,15.178-8.788.2-3.4-8.96-5.626-5.048-9.665,21.732,1.671,16.646-6.277,16.646-12.8,3.357,1.246,6.378,2.515,6.855,3.159-.169-.224-5.324.508-4.072,1.145,1.936.983,6.325.162,8.163,1.133,3.627,1.973,7.191,2.961,8.144,5.742-4.806-.351-3.793-3.978-10.19-3.436,5.989,7.031-4.766,4.039-8.163,4.588,2.761.988,7.31,4.084,10.209,6.875.875.851-.7,2.527,0,3.441,2.482,3.337,6.516.81,6.108,3.448-.031.214-4.072-1.145-4.072-1.145-.985.24-.169,3.536-2.036,3.425,8.223,1.586,7.209-2.045,10.19-3.425,12.913-2.273,18.613,5.531,26.5,2.291-7.109-.194-8.938-3.385-14.271-4.594,7.617.1,5.81,1.292,12.226,0-5.779,3.4,8.769,1.818,8.163,5.728a86.628,86.628,0,0,1,24.483,2.306c.455-2.167-2.306-2.525-2.036-4.586,2.908.443,3.435,1.38,6.108,0,8.4,4.228,19.4,9.185,24.48,13.759,3.338-.1,8.86,1.916,4.085,0-.031-1.514-3.6-1.043-4.085-2.3,9.795-.531,9.148,4.8,14.275,6.895-2.993.011-6.466-4.839-6.121,0,6.287.792,3.925.792,10.19,0,.866,2.273,8.492,6.579,10.2,4.581-6.353.284-3.354-3.911-6.114-5.737-.8-.515-5.145-.732-6.121-1.135-1.716-.755-2.441-2.615-4.081-3.459-3.683-1.876-9.346-2.614-10.19-5.732,5.283,1.615,9.415,3.877,14.271,5.732-.179-4.8-19.467-6.088-8.154-10.329-3.027-1.346-9.1-.983-8.154-4.581,5.462.8,3.934-2.37,6.108-3.441a52.913,52.913,0,0,1-8.144-2.291c-.684-.291.6-1.934,0-2.3-1.3-.761-6.642.648-6.127-1.145.1-1.576-.963-2.52-2.045-3.443,2.563,2.125,8.135,2.164,10.209,3.443,1.512.939.27,2.636,2.036,3.441s4.558.279,6.118,1.144c1.114.626,1.114,2.778,2.027,3.441,5.732,4.147,12.863,4.985,18.362,8.035,1.154.648,1.076,2.755,2.049,3.436,3.454,2.435,10.607,4.811,14.271,5.737,2.086.519,5.751,6.314,8.173,2.308-2.274-.794-10.607-3.822-6.136-4.6,2.293-.106,3.178,1.671,4.081,0-3.843-2.049-9.443-3.094-12.226-5.732,7.943.074.875-1.519,0-2.3-1.271-1.094-.577-1.458-2.036-2.291.844.48-2.852,1.274-4.082,0-1.44-1.475,3.457-1.207,0-2.291.537.162-2.246,1.535-4.094,1.145-.455-.1.38-2.051,0-2.3-4.546-2.956-1.487,4.468-4.069,2.3-2.375-1.7-2.375-2.894,0-4.6-5.1.15-6.387,2.2-8.166-1.145,4.957-1.147-3.99-5.072,6.121-4.586,4.05,2.647-.518,1.274-2.049,3.439a12.374,12.374,0,0,0,10.212,0c4.449,4.376,11.966,7.036,22.444,8.035,3.507,2.631,11.58,8.714,16.3,6.877-9.117-4.375-21.242-10.728-28.543-16.055-1.481-1.075-6.2-3.056-4.072-4.581,5.2,3.457,9.057,6.664,16.317,9.166-.486-.15.674-1.736,2.027-1.149.825.374,6.714,6.222,8.144,2.3-2.246-.771-10.566-3.8-6.1-4.588,3.7,1.438,11.859,6.24,14.262,4.588-5.5-2.621-11.758-4.984-14.262-8.028-5.4-6.526,6.664-2.744,0-5.739-1.129-.508,1.879-1.571,2.027-1.138-1.261-3.526-4.5-3.469-4.072-5.732.078-.438,7.388.413,6.1-1.147-.637-.821-9.318.872-8.125-1.144,4.035-2.794,8.7,1.925,10.171-2.308-3.633-.552.894-1.218,2.027-2.285-10.13-.3-8.662-.48-16.289-1.151-1.39-1.274-6.783-5.949-8.154-3.446,2.045.011,2.563,2,0,2.289-4.668-3.9-16.229-9.948-12.248-14.9-.336,2.866,3.14,3.591,6.121,4.592,3.394-4.553-3.417-5.368-6.121-9.184.229.328,2.337-.364,2.049-1.147-.129-.316-3.577-1.463-4.072-2.3-.954-1.491-.756-4.112-2.045-5.742,2.682-.005,1.857-2.012,4.069-2.284,4.649-1.571,7.671,2.954,8.176,0a9.8,9.8,0,0,1-1.054-7.006,10.825,10.825,0,0,1,1.123.028,5,5,0,0,0-.775-1.029c.844-2.476,2.8-4.772,6.814-5.755.009,1.151-1.66,1.357-2.036,2.291,5.471,1.068,2.353-2.358,4.072-3.441,1.509-.951,6.742-.124,6.118-2.3-5.095.145-6.384,2.2-8.154-1.14,2.82-4.045,11.024-3.854,16.307-2.3-3.1,1.158.574,2.571,0,3.438-.179.284-3.677-.247-4.072,0-3.448,2.172.853,4.62,0,8.038-.417,1.62-6.576,2.337-2.027,4.581-7.824-.2-.753.939-2.055,3.446-4.182-1.318-9.722,1.795-4.082,2.3.119-.7.3-1.362,2.045-1.149,6.971,5.333,22.416-.611,24.47,8.026-8.659.286-11-3-20.38-2.294-3.018,4.361,9.089.229,6.1,4.59,1.459,3.113-9.616-.821-8.154,2.3,9.5,3.072,19.7,5.732,24.461,11.456h8.163c3.357,1.906,6.118,5.2,10.19,6.888,1.343.561,4.709-.491,6.13,0,1.675.605,2.353,2.811,4.072,3.45,3.624,1.324,11.194,1.881,16.317,3.452,2.334.7,3.793,2.686,6.118,3.436A57.187,57.187,0,0,0,780.4-219.6c.05.325.091.665.141.978.831,5.358,4.875,10.609,6.275,18.131.7,3.713,2.532,10.835,2.108,11.735-1.98,4.124-11.573,5.275-14.67,7.47-1.619,1.151,1.358,4.089-4.191,3.2-6.278-8.9.386-24.376-20.926-25.609-12.267,2.693-6,10.253-10.488,14.938-2.049,2.146-5.644,2.873-8.373,4.263-4.411,2.25-3.677,2.128-8.383,3.206-3.564.815-6.108,4.475-8.37,5.329,15.74-1.129,25.145-14.268,39.784-6.4,4.053-1.129,2.93-4.909,6.287-6.4,4.64.4,5.374,3.637,6.287,5.329,1.082,2,2.591,6.325,2.1,7.47-1.587,3.648-27.231,14.391-31.423,14.938-8.455,1.1-17.7-1.927-25.12-1.062-6.344.722-10.227,3.822-12.571,5.326-9.437,6.049-18.535,12.844-14.66,21.341,18.362-1.671,28.345-7.6,35.6-14.938,8.006.558,7.5-1.687,10.478-3.2,4.182-2.141,7.3-3.8,10.469-5.34,2.322-1.106,6.764-1.325,8.392-2.13,3.3-1.648,4.725-4.47,8.361-6.4,3.26-1.721,7.429-3.8,12.565-4.267,3.944,8.289,3.5,17.363,6.287,25.609,3.614,10.691,12.194,20.668,18.849,27.731-1.261,5.67-16.207,9.15-8.383,16,15.573-1.179,1.371-10.968,10.478-14.928,12.176,5.887,20.461,13.754,37.7,17.066,2.93,4.911,9.186,5.389,16.747,7.468,3.514.962,4.041,3.415,10.469,2.135,9.851-8.123-5.763-4.939-10.469-6.409.486.157-2.375-2.358-2.1-2.128-.954-.752-.913-1.525-2.1-2.134-14.2.572-15.482-1.285-23.021-4.274-1.838-.715-4.232-1.373-6.287-2.128-5.283-1.932-6.535-4.106-10.469-6.408-6.146-3.563-14.758-7.954-14.67-12.794,16.637-2.2,31.9-5.082,52.351-5.34,7.727,6.748,16.078,14.028,25.136,21.348,13.779,11.105,26.033,23.943,52.361,26.663,4.834,10.024-14.522,9.425-16.753,16-3.329,9.785,16.612,12.305,20.527,22.352-.019-1.488,3.156-1.348,4.6-2.084.728-.363-.584-1.7,0-2.135,5.02-3.671,10.858-5.592,18.852-6.4-.863,9.806-9.076,15.074-10.456,22.4q-8.014.2-8.4,4.269c2.924,1.364,1.292,5.035,4.191,6.4-5.986-3.307-13.393,3.028-8.37,5.336,6.036.642,5.49-3.379,6.274-4.269.3-.335,3.677-.694,4.191-1.068.646-.459-.464-1.609,0-2.133.27-.312,3.677-.72,4.2-1.061,5.252-3.51,3.119-4.558,2.083-7.477-2.184-6.12,2.764-7.334,6.278-10.669,2.485-2.347,3.7-4.38,6.3-6.4,6.6-5.139,18.444-9.3,20.947-13.865,4.42-8.128-.944-18.619,2.074-27.732.49-1.44,3.5-2.139,4.185-3.2,2.3-3.432.4-8.554,2.1-11.739.922-1.7,5.349-2.954,6.293-4.262,1.274-1.793,1.779-4.839,2.1-6.4,1.678-8.245,2.413-11.726,8.376-17.066,3.282,7.7,12.91,12.5,12.558,20.262-.129,2.961-4.119,7.212-6.274,10.669-1.964,3.157-2.614,5.855-4.2,8.538-.229.4-3.865,1.562-4.191,2.134-2.576,4.486-1.321,9.034-4.179,12.8-1.126,1.507-5.214,1.971-4.185,4.269-7.36-.192-6.892,3.6-12.574,4.262v10.664c2.485,1.592,7.915,1.659,10.478,3.2-4.8,6.759-6.554,13.742-10.478,19.207-.674.926-.913,2.229-2.074,3.194-1.023.833-3.755,1.315-4.191,2.134.132-.244,2.256,1.219,2.1,2.135-.577,3.005-4.838,6.754-6.3,9.6-2.375,4.6-2.958,9.5-6.278,13.871-1.409,1.856-4.47,2.432-6.278,4.258a21.054,21.054,0,0,0-4.2,5.335c.053-.1,2.453.178,2.1,1.068-1.409,3.57-5.095,8.474-6.287,10.669-20.348,2.6-20.3,17.208-4.182,18.134,10.2.586,18.506-4.955,18.852-10.671.238-4.126-11.125-6.821-6.278-11.73,30.023,2.261,18.8-9.946,20.947-18.129.634-2.515,4.719-3.826,6.259-6.408,1.835-3.005.295-6.464,2.1-9.6,1.547-2.675,6.513-4.726,8.389-7.468,1.352-1.968,1.016-4.331,2.089-6.4,5.976-11.492,12.342-20.755,18.845-30.939,4.3-6.732,8.753-12.307,12.574-18.134,1.023-1.574,3-2.8,4.182-4.264,1.016-1.246-2.642-5.395,4.169-4.274,3.112,6.851,6.318,17.951,10.5,23.476,1.481,1.966.587,5.631,6.265,5.331,1.87-2.749-3.184-5.047-4.179-7.465-.973-2.386,1.06-5.017,0-7.463-1.917-4.472-9.418-8.656-10.478-13.879-.555-2.771-1.591-6.289,2.1-9.6,3.307.1,1.628,2.721,6.287,2.134,5.082-2.028,3.765-7.318,10.469-8.536,17.738,3,23.457-3.028,23.04-8.541-.245-3.124-9.992-5.721-12.574-10.666-3.247-6.212-.665-9.219,2.1-13.853,8.938,8.3,21.832,15.378,27.235,24.519,1.39,2.374.132,6.155,2.1,8.541.264.358,3.435,1.548,4.182,2.141,6.783,5.322,9.82,8.531,18.839,10.664,2.224.521,4.48,1.8,6.287,2.134,20.041,3.6,33.82-4.915,35.6-13.865,1.5-7.486-4.954-14.935-8.383-17.072-3.881-2.43-3.934-2.179-8.374-3.208m104.7-72.529c-.047-3.879-6.136-4.682-14.638-4.269.458,2.017-2.375,2.352-2.1,4.269,3.5,1.412,7.005,2.825,14.651,2.128.474-.821.069-2.095,2.083-2.128m-12.543-14.933c1-3.364-6.435-2.419-4.182-6.4.358-3.005,9.942-1.324,8.373-5.331-2.463-.168-5.948.185-6.287-1.066,4.132-16.878,18.94-34.262,14.651-49.073-2.425,14.4-9.506,26.446-12.555,40.532-3.3.1-7.269-.139-6.287,2.134-.637,2.1,2.82,2.128,4.191,3.2-5.277,1.938.932,9.725-8.383,9.6,3.633,5.988-7.04,12.771,0,21.335,3.316-5.068,1.43-12.783,10.478-14.933m-14.66,15.994c1.572,7.932-8.311,15.665-2.1,22.408-1.43-7.862,7.737-15.944,2.1-22.408m8.373,120.554c-3.009,1.551-3.078,4.122,4.191,3.194.11-1.837-1.616-2.732-4.191-3.194m81.666-156.817c-1.547,2.363,7.718,4.392,8.383,2.128-4.151-.005-2.648-2.9-8.383-2.128m-96.326,61.872c-1.848,4.055,1.126,5.34,2.1,3.194.329-.738-.731-6.2-2.1-3.194m123.57-12.8c-1.656,4.106,10.02,4.106,8.364,0-5.719.1-4.213-1.777-8.364,0m-35.614-35.2c3.736-4.692,6.8-12.985-2.092-16-3.686,3.457-10.469,5.336-16.756,7.47-2.682-4.89-3.746-6.469-2.1-11.739a19.629,19.629,0,0,1-6.278-2.128c-7.213.593-10.657,3.106-14.67,5.331-2.482-2.218-12.831.485-10.466,4.262,8.659,1.435,9.907-1.7,12.562-2.134,5.44-.866,11.332.619,14.661-2.128,8.74,10.592-9.384,28.283,8.383,34.133,6.645-3.369,9.823-8.515,14.66-12.792,3.294.452,1.785,3.346,8.38,2.128,1.747-1.241,2.761-2.855,2.083-5.336-3.115-.178-7.714.386-8.37-1.066m-46.071,89.608c-19.131-1.156-17.481,13.452-4.191,14.928-4.235-5.169,10.089-8.638,4.191-14.928m25.126-110.944c4.775.3,7.875-.252,8.383-2.134-3.112-1.682-9.355-1.179-8.383,2.134m-54.447-229.352c1.2-.648,4.91-5.056,0-5.328,1.252,1.892-6.146,4.428,0,5.328m-8.373-75.725c1.471-.8,5.214-5.236-2.1-4.279.361,1.6-.744,3.939,2.1,4.279m0,91.724c4.878.962,1.2-7.262,0-3.194-.665,12.457-20.587,15.116-16.762,29.866,22.425-1.9,11.987-18.588,16.762-26.672m-20.944-53.333c-4.242,1.6-2.475,3.4-4.191,5.34-.358.4-3.812.542-4.191,1.062-2.275,3.162-.665,6.844-2.083,10.669-1.772,4.7-8.662,9.364-4.182,12.8,2.253-10.59,20.138-18.888,14.648-29.875m48.16-1.068c.455-2.347,5.123-7.945,2.1-8.538-.935,2.107-7.771,6.605-2.1,8.538m-81.669,5.342c-.816,1.076,2.055,1.858,2.086,2.128,1.1,7.971,5.3,12.591,6.287,18.132.445,2.5-2.118,5.068-2.086,7.472.047,6.519,5.926,12.72,4.182,19.193.665,1.715,2.977-.072,2.1-2.128.166-2.294-.232-4.373,0-6.4.386-3.57,4.11-7.53,4.191-10.662a36.186,36.186,0,0,1-4.191-1.062c-.558-1.006,2.152-1.331,2.1-2.135-.333-4.179-1.71-4.747-4.191-7.468-4.54-4.991-6.965-9.485-6.287-14.938.426-3.487,7.865-7.527,8.383-11.734.505-4.144,1.089-8.615-8.383-11.742-2.174,3.325-5.644,6.4-6.278,9.6-1.261,6.4,3.9,9.325,2.1,11.744M1241.291-402.1c-.129.649-.317,1.256-2.1,1.068v2.128c5.145,1.664,6.146-3.619,2.1-3.2M1235-439.438c-.336-1.966,4.935-8.744,0-6.4,2.265,2.726-6.375,5.084,0,6.4m6.287,144.011v-3.2H1237.1c-.119,1.364-2.689,1.475-2.1,3.2Zm2.1-205.886c-1.142-3.146,5.939-7.527,2.077-8.525-.925,2.093-7.758,6.6-2.077,8.525m-10.479,34.138c2.049-1.821,7.667-6.552,2.1-7.47.558,3.845-3.871,5.141-4.191,8.538,1.7,1.579.624.24,2.1-1.068m6.287-129.072c-1.638,2.368-4.411,4.163-4.191,7.47,6.479.725,8.712-6.113,4.191-7.47M583.662-92.747c-.634,1.444-2.977,2.035-2.1,4.264,9.744,1.292,10.071-4.241,2.1-4.264M439.176-209.025c-2.692,1.4-2.692,3.934,0,5.329,9.405.549,6.883-5.58,0-5.329m-20.944,6.4c-.119.653-.329,1.267-2.1,1.066-.637,2.816,2.9,3.508,8.37,3.2.6-2.79-.762-4.588-6.275-4.269M564.823-50.082c.329,1.258-.358,3.028,2.1,3.2,1.28-1,4.875-3.932-2.1-3.2m4.191-36.268c-.486.66,3.169,2.291,4.2,2.134,5.5-.854-1.362-5.993-4.2-2.134M391-163.148c2.792,1.38,7.787,1.4,8.383-1.073-2.78-1.391-7.8-1.4-8.383,1.073m77.49-68.275c2.215-3.542,6.206-4.631-2.1-6.408-2.88,1.376-3.636,6.381,2.1,6.408m535.875-308.333c15.592-10.721,33.876-26.169,52.348-36.268,1.578-.861.684-2.19,2.1-3.2.684-.5,3.407-.542,4.169-1.073,1.333-.888,1-2.4,2.086-3.2,4.113-2.933,8.681-5.6,12.6-8.531,1.967-1.479,3.934-2.631,6.274-4.274,4.678-3.268,7.093-6.664,10.479-9.6.715-.619,3.338-1.442,4.172-2.128,1.073-.882.775-2.336,2.1-3.2,6.306-4.1,17.669-5.861,20.944-10.671,1.838-2.7.985-6.363,0-9.6-2.682-.055-2.9-1.362-6.284-1.068-5.672,2.967-8.524,3.738-12.565,7.47-5.082,4.71-11.272,11.458-14.661,14.938-1.49,1.519-.624,2.794-2.1,4.263-3.724,3.738-10.516,7.066-14.657,10.675-1.224,1.068-1.085,2.313-2.1,3.2a129.359,129.359,0,0,1-10.469,8.531c-2.384,1.71-6,2.554-8.383,4.269s-3.774,4.509-6.278,6.4c-1.054.787-3.027,1.112-4.191,2.134-2.641,2.324-3.969,3.888-6.287,5.342-7.278,4.535-13.007,9.335-18.845,13.86-4.3,3.33-13.4,7.055-10.46,11.737M834.994-55.411c-5.71-1.212-21.939-9-25.136-3.206,9.026-3.067,18.146,5.564,25.136,3.206m312.044-489.637c.467.828.05,2.1,2.1,2.132-.01.595,1.688,1.216,2.108,0-4.235-3.125-1.9-3.014-6.3-5.336,2.168,1.156-8,.194-4.191-2.135-6.892.051-8,3.046-8.37,6.409,4.486,2.3,11.689.547,14.657-1.069m-35.6-57.607c.3-1.257,3.727-2.414,0-3.191-.3,1.251-3.733,2.414,0,3.191M648.6-586.649c4.063-3.2,8.442-13.625-2.1-14.94-2.362,3.649-4.847,12.889,2.1,14.94M1121.9-556.784c14.193.162,11.79-12.118,6.287-16-1.7,6.1-9.484,10.391-6.287,16m46.083,100.278c-2.773,11.386-17.5,16.692-16.756,29.873,19.26-1.23,15.206-14.156,16.756-24.542.4-2.688,5.719-3.653,0-5.331m6.287,6.4c-.618.653-5.2,4.106,0,4.269-2.008-1.984,6.265-3.565,0-4.269m253.406,75.743h-4.2c-2.325,1.53-2.252,2.6,2.105,3.2-.088-1.468.995-2.335,2.1-3.2m2.1-43.736c3.4-1.47,10.359-1.039,8.364-4.269-11.771,1.463-22.121,3.665-25.12,9.6,6.268,2.275,11.511-3.062,16.756-5.329M1415.1-358.36c1.292-1.006,4.878-3.944-2.086-3.206.329,1.256-.367,3.028,2.086,3.206m-100.53-19.212c.122-1.832-1.594-2.732-4.179-3.2-2.99,1.563-3.078,4.135,4.179,3.2m96.348-20.269c-5.518-.323-6.871,1.481-6.293,4.269,5.518.325,6.88-1.475,6.293-4.269m-43.984-58.664c5.817-5.093-6.877-2.587,0,0m71.2,83.208c-8.235,4.151-19.379,11.943-14.66,19.2,15.655-1.392,25.854-13.6,14.66-19.2m104.719-117.341c1.063-.325,7.5-.565,8.383-1.068,1.738-1-.963-3.972,2.1-4.267-8.424,1.045-17.092,1.955-16.766,7.463,4.3.642,4.48-1.581,6.287-2.128M1302.016-360.5c4.129.318,4.16-1.442,6.293-2.141.113.655.307,1.272,2.086,1.073v-2.141c-.119-.642-.317-1.257-2.086-1.061.618,2.809-8.132.844-6.293,4.269M1565.9-517.309c-3.3,2.585-7.8,4.553-6.287,9.6,12.047.877,12.166-7.073,6.287-9.6m-31.416,39.464c-21.39-.716-29.612,15.468-16.744,22.406,14.877-2.363,22.068-13.173,16.744-22.406m-6.287-33.063c-.455-.836-1.754-1.244-4.191-1.066-5.4,2.329-10.8,6.312-6.274,10.666,10.905.568,10.648-4.537,10.466-9.6m2.1,26.67c3.6-1.731,5.2-4.463,4.191-8.534-9.384.106-9.584,6.256-4.191,8.534M1289.451-367.964c-2.632,3.614-8.991,7.091-10.469,11.734-1.3,4.05,2.482,8.6,2.086,11.725-1.133-1.916,3.752-3.173,6.287-5.322,4.637-3.946,13.227-17.13,2.1-18.136m-23.043-155.755c1.776,7.331-7.746,14.52-2.1,20.275,1.292-11.794,13.854-23.515,8.383-35.2-1.38,2.852-.882,6.662-4.191,8.532-1.666-5.469,4.42-6.994,4.191-11.732-8.7.653-4.568,5.631-6.287,9.591-1.729,4.024-10.755,8.984-4.191,11.749a10,10,0,0,1,4.191-3.214m39.8-88.535c.279-1.558,1.628-4.731-2.093-5.335-2.576,4.034-7.024,7.1-6.287,12.8,4.439.15,7.925-4.9,8.38-7.47m-46.071,114.145c3.881-.162,1.28-3.614,4.179-4.267-6.385-1.459-5.879,8.262-4.179,4.267m16.753-51.21c-2.4,1.26-2.365,3.78-2.1,6.4,1.164,2.892,5.722-6.845,2.1-6.4m-20.944,254.952c-1.361,2.995-5.691,3.425-6.287,6.408,8.254-1.71.734,4.6,6.287,4.264,1.249-10.179,4.307-20.28,8.37-26.675,3.137-4.906,6.544-8.515,8.383-12.794,2.94-6.861,7.131-10.654,8.373-16-4.022-.436-1.65-4.138-8.373-3.2-8.888,3.851-8.653,7.594-12.562,14.928-1.87,3.5-5.813,7.788-6.287,10.676-1.1,6.851,5.1,15.854,2.1,22.4m2.1-193.076c-1.2-2.85,6.2-6.665,0-8.531,2.419,3.462-6.409,6.552,0,8.531m6.275-60.81c.765-1.839,6.334-6.586,2.1-7.458-2.293,1.066-7.837,5.815-2.1,7.458m23.043-27.732c-6.764-.955-2.952,3.48-6.287,4.274,5.525.318,5.4-2.234,6.287-4.274m-31.413,328.558c-14.481,1.211-2.667,7.234,0,0m25.126-176.01c15.514.072,17.556-6.7,20.948-12.8-9.02-2.375,2.1-8.7-8.373-10.671-8.565,5.19-21.951,15.822-12.574,23.471m12.574-193.084c.615-.655,5.214-4.1,0-4.269-.618.665-5.208,4.106,0,4.269m-12.574,356.294c-3.646,2.239-6.855,7.826,0,9.6,2.4-1.352,4.213-8.407,0-9.6m4.192-128.01c.326,1.257-.361,3.028,2.1,3.2,1.28-1,4.885-3.932-2.1-3.2M1165.89-533.315c.555-1.458-1.289-4.158-2.1-2.128-.568,1.452,1.289,4.156,2.1,2.128M673.733-91.679c-6.136,1.034-4.706-.939-8.383-2.134-1.647-.536-2.94-.593-4.179-1.068-1.738-.665-.747-1.061-4.191-1.066,2.045.005-10.322,2.082-10.478,2.133-3.219,1.066-16.765,10.821-16.756,10.671-.515,6.374,9.845,8.859,27.234,9.6,8-1.609,8.094-7.256,16.753-8.525,2.206-4.468-4.417-7.241,0-9.609M619.27-58.618c3.733.949,5.333,2.982,12.571,2.139,10.18-7.754-14.667-12.392-12.571-2.139m56.558-21.33c-1.886,3.441,6.836,1.5,8.373,3.2.637-2.816-4.37-2.756-8.373-3.2m-50.262-94.945c12.562-.212,19.972,3.51,37.7,3.2,2.1,1.422,1.976,3.965,6.275,4.267.091-1.468-.991-2.34-2.1-3.2,19.238.792,31.335-2.245,48.169-1.071a1.44,1.44,0,0,0-.464-1.354c.267-.026.038-.168-.508-.385-.913-.57-2.224-.934-3.209-1.465a5.234,5.234,0,0,0-2.918-.436c-3.247-.9-5.713-1.489-2.036-.339a2.054,2.054,0,0,0,.367.519c-2.315.314-4.976.692-7.984-.81.972,4.419-9.794,2.838-14.66,4.269.091-1.465-.994-2.342-2.1-3.2-18.729-1.121-32.467-4.788-52.361-5.328-.891,2.038-5.976,1.927-4.179,5.328M602.514-57.55c-3.824,2.531-5.462,6.173-2.1,9.6,18.315,3.15,20.041-11.783,2.1-9.6M627.663-8.474c2.1-.005,2.482.861,4.179,1.062-.009-1.068,1.7-1.269,2.086-2.128-2.1,0-2.482-.866-4.182-1.068.013,1.068-1.7,1.269-2.083,2.134m50.262-55.474c-1.666,3.692,2.325,4.5,4.182,6.4,9.722-.734,15.285-3.582,16.756-8.531-10.011-1.214-11.57.921-20.938,2.134m2.1-24.536c-.2,1.687-5.352.838-4.191,3.2,3.14-.18,7.727.374,8.373-1.068-1.628-.235-4.132-.021-4.182-1.066,1.164.005,2.366-.861,0-1.068m-2.1-56.531c-1.757,1.669-9.057,5.938-4.191,7.465-1.449-3.554,4.32-1.722,6.287-1.075-.822-3.251,5.5-5.43-2.1-6.39M780.541-70.349c.784.184-4.292,2.033-4.191,0,1.17,0,2.384-.861,0-1.068-.031,1.765-5.81.593-6.287,2.134,5.8-.176,7.2,1.638,4.191,3.2,13.358-3.542,24.094,5.178,33.518,3.194-8.671-2.861-19.912-3.162-27.231-6.4.169.079,2.72-.424,0-1.066m2.1-23.464c-2.99-.258-3.526-1.754-6.287-2.134-1.829,2.19,5.431,4.782,6.287,2.134M736.554-75.679c.634,4.357-2.9-.184-8.373,1.068-1.3,6.831-3.683,1.133-4.191,1.066.16.018-.276,1.336-2.1,1.062-1.092-.162-5.879-3.4-6.278-1.062,5.522,1.872-2.8,4.452-4.182,1.062a3.452,3.452,0,0,0,0,6.4c9.2.473,9.158-2.1,10.46-3.2,4.449,2.2,14.51-1.8,23.031-1.066-.584-2.889-7.658-2.494-8.37-5.329m-2.1-4.269c5.192,3.475,15.194-2.921,8.383-5.335,1.01,3.715-5.246,3.725-8.383,5.335M782.637,91.794c9.108-9.372-20.439-1.837,0,0M755.415-75.679c-7.9,1.212-9.537-1.029-12.574,2.133,3.733-.648,8.7,3.124,10.466,0-1.271-.067-2.472-.162-2.1-1.066,1.628-.247,4.141-.035,4.2-1.068m-8.383,5.329c8.013,2.038,7.627,1.3,14.657,0,4.518-.826,8.91.312,8.373-2.134-7.667-1.855-15.175,1.043-23.031,2.134" transform="translate(89.812 840.158)" fill="#231f20"/>
      </g>
    </g>
  </g>
</svg>